<?xml version="1.0" encoding="UTF-8"?>
<svg id="_圖層_2" data-name="圖層 2" xmlns="http://www.w3.org/2000/svg" xmlns:xlink="http://www.w3.org/1999/xlink" viewBox="0 0 93.34 71.21">
  <defs>
    <style>
      .cls-1 {
        fill: url(#_未命名漸層_4);
      }

      .cls-2 {
        fill: #f7f18e;
        font-family: CormorantGaramond-SemiBold, 'Cormorant Garamond';
        font-size: 65px;
        letter-spacing: .05em;
      }
    </style>
    <linearGradient id="_未命名漸層_4" data-name="未命名漸層 4" x1="2.79" y1="40.27" x2="88.2" y2="40.27" gradientUnits="userSpaceOnUse">
      <stop offset="0" stop-color="#e9c668"/>
      <stop offset=".07" stop-color="#eed278"/>
      <stop offset=".16" stop-color="#f4de86"/>
      <stop offset=".24" stop-color="#f6e28b"/>
      <stop offset=".36" stop-color="#fff"/>
      <stop offset=".37" stop-color="#fdf9ec"/>
      <stop offset=".39" stop-color="#f9ebc2"/>
      <stop offset=".41" stop-color="#f6e1a1"/>
      <stop offset=".43" stop-color="#f3da8a"/>
      <stop offset=".45" stop-color="#f2d57b"/>
      <stop offset=".47" stop-color="#f2d477"/>
      <stop offset=".67" stop-color="#fff4c4"/>
      <stop offset=".67" stop-color="#fef3c2"/>
      <stop offset=".71" stop-color="#f4e098"/>
      <stop offset=".74" stop-color="#edd277"/>
      <stop offset=".77" stop-color="#e7c860"/>
      <stop offset=".8" stop-color="#e4c251"/>
      <stop offset=".83" stop-color="#e3c04d"/>
      <stop offset=".87" stop-color="#eacc66"/>
      <stop offset=".92" stop-color="#f1d77d"/>
      <stop offset=".96" stop-color="#f5de8c"/>
      <stop offset="1" stop-color="#f7e191"/>
    </linearGradient>
  </defs>
  <g id="content">
    <g>
      <text class="cls-2" transform="translate(0 52.81)"><tspan x="0" y="0">100</tspan></text>
      <g>
        <path class="cls-1" d="M7.83,30.06c-.24-.61-.71-1.02-1.43-1.23-.71-.22-1.87-.33-3.48-.33-.09,0-.13-.13-.13-.39s.04-.39,.13-.39c1.39,0,2.47,.02,3.25,.06l4.62,.06,4.55-.06c.82-.04,1.93-.06,3.31-.06,.13,0,.2,.13,.2,.39s-.06,.39-.2,.39c-1.52,0-2.63,.12-3.35,.36-.72,.24-1.21,.66-1.5,1.27-.28,.61-.42,1.56-.42,2.86v14.56c0,1.34,.12,2.32,.36,2.93,.24,.61,.71,1.02,1.43,1.23,.71,.22,1.87,.33,3.48,.33,.13,0,.2,.13,.2,.39s-.06,.39-.2,.39c-1.39,0-2.47-.02-3.25-.06l-4.61-.06-4.55,.06c-.82,.04-1.93,.06-3.32,.06-.09,0-.13-.13-.13-.39s.04-.39,.13-.39c1.52,0,2.63-.12,3.35-.36,.71-.24,1.21-.66,1.5-1.27,.28-.61,.42-1.56,.42-2.86v-14.56c0-1.34-.12-2.32-.36-2.92Z"/>
        <path class="cls-1" d="M33.34,51.9c-2.08-1.17-3.71-2.78-4.88-4.84-1.17-2.06-1.76-4.37-1.76-6.92s.59-4.84,1.76-6.86c1.17-2.01,2.79-3.58,4.88-4.71,2.08-1.13,4.44-1.69,7.08-1.69s4.98,.57,7.02,1.72c2.04,1.15,3.63,2.74,4.78,4.78,1.15,2.04,1.72,4.33,1.72,6.89s-.58,4.85-1.72,6.89c-1.15,2.04-2.75,3.63-4.81,4.78-2.06,1.15-4.39,1.72-6.99,1.72s-5-.59-7.08-1.76Zm12.74-2.47c1.13-1.99,1.69-4.77,1.69-8.32,0-4.33-.75-7.58-2.24-9.75-1.5-2.17-3.39-3.25-5.69-3.25s-3.99,1.03-5.2,3.09c-1.21,2.06-1.82,4.82-1.82,8.29,0,3.81,.76,6.92,2.27,9.33,1.52,2.41,3.51,3.61,5.98,3.61,2.21,0,3.88-1,5-2.99Z"/>
        <path class="cls-1" d="M67.6,51.9c-2.08-1.17-3.71-2.78-4.88-4.84-1.17-2.06-1.76-4.37-1.76-6.92s.59-4.84,1.76-6.86c1.17-2.01,2.79-3.58,4.88-4.71,2.08-1.13,4.44-1.69,7.08-1.69s4.98,.57,7.02,1.72c2.04,1.15,3.63,2.74,4.78,4.78,1.15,2.04,1.72,4.33,1.72,6.89s-.58,4.85-1.72,6.89c-1.15,2.04-2.75,3.63-4.81,4.78-2.06,1.15-4.39,1.72-6.99,1.72s-5-.59-7.08-1.76Zm12.74-2.47c1.13-1.99,1.69-4.77,1.69-8.32,0-4.33-.75-7.58-2.24-9.75-1.5-2.17-3.39-3.25-5.69-3.25s-3.99,1.03-5.2,3.09c-1.21,2.06-1.82,4.82-1.82,8.29,0,3.81,.76,6.92,2.27,9.33,1.52,2.41,3.51,3.61,5.98,3.61,2.21,0,3.88-1,5-2.99Z"/>
      </g>
    </g>
  </g>
</svg>