<?xml version="1.0" encoding="UTF-8"?>
<svg id="_圖層_2" data-name="圖層 2" xmlns="http://www.w3.org/2000/svg" xmlns:xlink="http://www.w3.org/1999/xlink" viewBox="0 0 29.38 71.21">
  <defs>
    <style>
      .cls-1 {
        fill: url(#_未命名漸層_11);
      }

      .cls-2 {
        fill: #f7f18e;
        font-family: CormorantGaramond-SemiBold, 'Cormorant Garamond';
        font-size: 65px;
        letter-spacing: .05em;
      }
    </style>
    <linearGradient id="_未命名漸層_11" data-name="未命名漸層 11" x1="4.73" y1="49.81" x2="13.42" y2="40.48" gradientUnits="userSpaceOnUse">
      <stop offset="0" stop-color="#e9c668"/>
      <stop offset=".13" stop-color="#eed278"/>
      <stop offset=".29" stop-color="#f4de86"/>
      <stop offset=".43" stop-color="#f6e28b"/>
      <stop offset=".79" stop-color="#fff"/>
      <stop offset=".83" stop-color="#fffbee"/>
      <stop offset=".89" stop-color="#fff7d7"/>
      <stop offset=".95" stop-color="#fff4c8"/>
      <stop offset="1" stop-color="#fff4c4"/>
    </linearGradient>
  </defs>
  <g id="content">
    <g>
      <text class="cls-2" transform="translate(0 52.81)"><tspan x="0" y="0">2</tspan></text>
      <path class="cls-1" d="M10.89,43.55c1.84-1.84,3.15-3.43,3.93-4.78,.78-1.34,1.17-2.71,1.17-4.09,0-1.69-.46-3.11-1.37-4.26-.91-1.15-2.15-1.72-3.71-1.72-1.65,0-3.02,.71-4.13,2.11-1.1,1.41-2.11,3.52-3.02,6.34,0,.04-.09,.07-.26,.07-.39,0-.56-.09-.52-.26l2.73-10.66c0-.09,.09-.13,.26-.13,.13,0,.25,.03,.36,.1,.11,.07,.14,.12,.1,.16-.04,.22-.06,.48-.06,.78,0,.69,.32,1.04,.97,1.04,.39,0,1.04-.15,1.95-.46,1.91-.61,3.58-.91,5-.91,2.34,0,4.17,.57,5.49,1.72,1.32,1.15,1.98,2.66,1.98,4.52,0,1.56-.48,3.07-1.43,4.52-.95,1.45-2.12,2.79-3.51,4-1.39,1.21-3.27,2.71-5.66,4.48l-2.34,1.75c-.13,.13-.16,.24-.1,.33,.07,.09,.21,.13,.42,.13,3.9,0,6.75-.06,8.55-.19s3.17-.44,4.13-.94c.95-.5,1.58-1.33,1.88-2.5,0-.09,.11-.13,.33-.13,.3,0,.46,.06,.46,.2l-1.24,7.34c0,.17-.05,.34-.16,.49-.11,.15-.25,.23-.42,.23H2.79c-.22,0-.38-.21-.49-.62-.11-.41-.08-.7,.1-.88,3.81-3.34,6.64-5.92,8.48-7.77Z"/>
    </g>
  </g>
</svg>