<?xml version="1.0" encoding="UTF-8"?>
<svg id="_圖層_2" data-name="圖層 2" xmlns="http://www.w3.org/2000/svg" xmlns:xlink="http://www.w3.org/1999/xlink" viewBox="0 0 101.27 71.21">
  <defs>
    <style>
      .cls-1 {
        fill: url(#_未命名漸層_4);
      }

      .cls-2 {
        fill: #f7f18e;
        font-family: CormorantGaramond-SemiBold, 'Cormorant Garamond';
        font-size: 65px;
        letter-spacing: .05em;
      }
    </style>
    <linearGradient id="_未命名漸層_4" data-name="未命名漸層 4" x1="1.48" y1="46.02" x2="96.13" y2="46.02" gradientUnits="userSpaceOnUse">
      <stop offset="0" stop-color="#e9c668"/>
      <stop offset=".07" stop-color="#eed278"/>
      <stop offset=".16" stop-color="#f4de86"/>
      <stop offset=".24" stop-color="#f6e28b"/>
      <stop offset=".36" stop-color="#fff"/>
      <stop offset=".37" stop-color="#fdf9ec"/>
      <stop offset=".39" stop-color="#f9ebc2"/>
      <stop offset=".41" stop-color="#f6e1a1"/>
      <stop offset=".43" stop-color="#f3da8a"/>
      <stop offset=".45" stop-color="#f2d57b"/>
      <stop offset=".47" stop-color="#f2d477"/>
      <stop offset=".67" stop-color="#fff4c4"/>
      <stop offset=".67" stop-color="#fef3c2"/>
      <stop offset=".71" stop-color="#f4e098"/>
      <stop offset=".74" stop-color="#edd277"/>
      <stop offset=".77" stop-color="#e7c860"/>
      <stop offset=".8" stop-color="#e4c251"/>
      <stop offset=".83" stop-color="#e3c04d"/>
      <stop offset=".87" stop-color="#eacc66"/>
      <stop offset=".92" stop-color="#f1d77d"/>
      <stop offset=".96" stop-color="#f5de8c"/>
      <stop offset="1" stop-color="#f7e191"/>
    </linearGradient>
  </defs>
  <g id="content">
    <g>
      <text class="cls-2" transform="translate(0 52.81)"><tspan x="0" y="0">400</tspan></text>
      <g>
        <path class="cls-1" d="M1.56,52.03c-.13-.17-.11-.35,.06-.52L21.38,27.07c.09-.09,.22-.13,.39-.13,.13,0,.26,.03,.39,.1,.13,.07,.19,.16,.19,.29V61.98c0,.48-.17,.78-.52,.91l-4.29,2.14-.39,.13c-.13,0-.2-.17-.2-.52v-30.75l4.1-3.05L5.46,49.69c-.26,.3-.15,.46,.32,.46,7.11,0,14.24-.13,21.38-.39,.17,0,.26,.37,.26,1.1,0,.43-.04,.86-.13,1.27-.09,.41-.17,.62-.26,.62-3.21-.17-6.57-.29-10.08-.36-3.51-.06-8.47-.1-14.88-.1-.22,0-.39-.09-.52-.26Z"/>
        <path class="cls-1" d="M41.28,51.9c-2.08-1.17-3.71-2.78-4.88-4.84-1.17-2.06-1.76-4.36-1.76-6.92s.59-4.84,1.76-6.86c1.17-2.02,2.79-3.58,4.88-4.71,2.08-1.13,4.44-1.69,7.08-1.69s4.98,.57,7.02,1.72c2.04,1.15,3.63,2.74,4.78,4.78,1.15,2.04,1.72,4.33,1.72,6.89s-.58,4.85-1.72,6.89c-1.15,2.04-2.75,3.63-4.81,4.78-2.06,1.15-4.39,1.72-6.99,1.72s-5-.58-7.08-1.75Zm12.74-2.47c1.13-1.99,1.69-4.77,1.69-8.32,0-4.33-.75-7.58-2.24-9.75-1.5-2.17-3.39-3.25-5.69-3.25s-3.99,1.03-5.2,3.09c-1.21,2.06-1.82,4.82-1.82,8.29,0,3.81,.76,6.92,2.27,9.33,1.52,2.4,3.51,3.61,5.98,3.61,2.21,0,3.88-1,5.01-2.99Z"/>
        <path class="cls-1" d="M75.53,51.9c-2.08-1.17-3.71-2.78-4.88-4.84-1.17-2.06-1.75-4.36-1.75-6.92s.58-4.84,1.75-6.86c1.17-2.02,2.79-3.58,4.88-4.71,2.08-1.13,4.44-1.69,7.09-1.69s4.98,.57,7.02,1.72c2.04,1.15,3.63,2.74,4.78,4.78,1.15,2.04,1.72,4.33,1.72,6.89s-.58,4.85-1.72,6.89c-1.15,2.04-2.75,3.63-4.81,4.78-2.06,1.15-4.39,1.72-6.99,1.72s-5.01-.58-7.09-1.75Zm12.74-2.47c1.13-1.99,1.69-4.77,1.69-8.32,0-4.33-.75-7.58-2.24-9.75-1.49-2.17-3.39-3.25-5.69-3.25s-3.99,1.03-5.2,3.09c-1.21,2.06-1.82,4.82-1.82,8.29,0,3.81,.76,6.92,2.28,9.33,1.52,2.4,3.51,3.61,5.98,3.61,2.21,0,3.88-1,5-2.99Z"/>
      </g>
    </g>
  </g>
</svg>