<?xml version="1.0" encoding="UTF-8"?>
<svg id="_圖層_2" data-name="圖層 2" xmlns="http://www.w3.org/2000/svg" xmlns:xlink="http://www.w3.org/1999/xlink"
  viewBox="0 0 109.38 351.73">
  <defs>
    <style>
      .cls-1 {
        fill: url(#_未命名漸層_294-2);
      }

      .cls-2 {
        fill: url(#_未命名漸層_294-11);
      }

      .cls-3 {
        fill: url(#_未命名漸層_294-10);
      }

      .cls-4 {
        fill: url(#_未命名漸層_294);
      }

      .cls-5 {
        fill: url(#_未命名漸層_294-9);
      }

      .cls-6 {
        fill: url(#_未命名漸層_294-6);
      }

      .cls-7 {
        fill: url(#_未命名漸層_294-8);
      }

      .cls-8 {
        fill: url(#_未命名漸層_294-4);
      }

      .cls-9 {
        fill: url(#_未命名漸層_294-7);
      }

      .cls-10 {
        fill: url(#_未命名漸層_294-12);
      }

      .cls-11 {
        fill: url(#_未命名漸層_294-3);
      }

      .cls-12 {
        fill: url(#_未命名漸層_294-5);
      }
    </style>
    <linearGradient id="_未命名漸層_294" data-name="未命名漸層 294" x1="3.86" y1=".31" x2="3.86" y2="355.07"
      gradientUnits="userSpaceOnUse">
      <stop offset="0" stop-color="#f7e191" />
      <stop offset=".04" stop-color="#f5de8c" />
      <stop offset=".08" stop-color="#f1d77d" />
      <stop offset=".13" stop-color="#eacc66" />
      <stop offset=".17" stop-color="#e3c04d" />
      <stop offset=".2" stop-color="#e4c251" />
      <stop offset=".23" stop-color="#e7c860" />
      <stop offset=".26" stop-color="#edd277" />
      <stop offset=".29" stop-color="#f4e098" />
      <stop offset=".33" stop-color="#fef3c2" />
      <stop offset=".33" stop-color="#fff4c4" />
      <stop offset=".53" stop-color="#f2d477" />
      <stop offset=".55" stop-color="#f2d57b" />
      <stop offset=".57" stop-color="#f3da8a" />
      <stop offset=".59" stop-color="#f6e1a1" />
      <stop offset=".61" stop-color="#f9ebc2" />
      <stop offset=".63" stop-color="#fdf9ec" />
      <stop offset=".64" stop-color="#fff" />
      <stop offset=".76" stop-color="#f6e28b" />
      <stop offset=".84" stop-color="#f4de86" />
      <stop offset=".93" stop-color="#eed278" />
      <stop offset="1" stop-color="#e9c668" />
    </linearGradient>
    <linearGradient id="_未命名漸層_294-2" data-name="未命名漸層 294" x1="39.01" x2="39.01" xlink:href="#_未命名漸層_294" />
    <linearGradient id="_未命名漸層_294-3" data-name="未命名漸層 294" x1="50.73" y1=".31" x2="50.73" y2="355.06"
      xlink:href="#_未命名漸層_294" />
    <linearGradient id="_未命名漸層_294-4" data-name="未命名漸層 294" x1="82.1" y1=".31" x2="82.1" y2="355.06"
      xlink:href="#_未命名漸層_294" />
    <linearGradient id="_未命名漸層_294-5" data-name="未命名漸層 294" x1="103.33" y1=".31" x2="103.33" y2="355.07"
      xlink:href="#_未命名漸層_294" />
    <linearGradient id="_未命名漸層_294-6" data-name="未命名漸層 294" x1="62.06" y1=".31" x2="62.06" y2="355.06"
      xlink:href="#_未命名漸層_294" />
    <linearGradient id="_未命名漸層_294-7" data-name="未命名漸層 294" x1="52.62" y1=".31" x2="52.62" y2="355.06"
      xlink:href="#_未命名漸層_294" />
    <linearGradient id="_未命名漸層_294-8" data-name="未命名漸層 294" x1="20.96" y1=".31" x2="20.96" y2="355.06"
      xlink:href="#_未命名漸層_294" />
    <linearGradient id="_未命名漸層_294-9" data-name="未命名漸層 294" x1="30.16" y1=".31" x2="30.16" y2="355.06"
      xlink:href="#_未命名漸層_294" />
    <linearGradient id="_未命名漸層_294-10" data-name="未命名漸層 294" x1="72.91" y1=".31" x2="72.91" y2="355.06"
      xlink:href="#_未命名漸層_294" />
    <linearGradient id="_未命名漸層_294-11" data-name="未命名漸層 294" x1="88.85" y1=".31" x2="88.85" y2="355.06"
      xlink:href="#_未命名漸層_294" />
    <linearGradient id="_未命名漸層_294-12" data-name="未命名漸層 294" x1="40.74" y1=".31" x2="40.74" y2="355.06"
      xlink:href="#_未命名漸層_294" />
  </defs>
  <g id="content">
    <g>
      <rect class="cls-4" y="143.37" width="7.72" height="208.36" />
      <rect class="cls-1" x="35.15" y="143.37" width="7.72" height="208.36" />
      <rect class="cls-11" x="49.14" y="143.37" width="3.18" height="158.05" />
      <rect class="cls-8" x="80.53" y="143.37" width="3.15" height="158.05" />
      <polygon class="cls-12"
        points="105 143.37 105 65.1 101.8 65.1 101.8 15.76 100.47 15.76 100.47 65.1 97.28 65.1 97.28 158.27 101.66 158.27 101.66 351.73 109.38 351.73 109.38 143.37 105 143.37" />
      <polygon class="cls-6"
        points="61.55 74.14 65.8 74.14 65.8 8.85 58.08 8.85 58.08 74.14 58.37 74.14 58.37 143.37 58.31 143.37 58.31 351.73 66.03 351.73 66.03 143.37 61.55 143.37 61.55 74.14" />
      <rect class="cls-9" x="51.03" y="0" width="3.18" height="75" />
      <polygon class="cls-7"
        points="20.34 65.1 18.4 65.1 18.4 158.27 21.58 158.27 21.58 80.07 23.52 80.07 23.52 14.73 20.34 14.73 20.34 65.1" />
      <rect class="cls-5" x="29.5" y="14.73" width="1.33" height="65.35" />
      <polygon class="cls-3"
        points="75.45 65.1 69.05 65.1 69.05 158.27 76.77 158.27 76.77 74.17 76.77 65.1 76.77 8.83 75.45 8.83 75.45 65.1" />
      <polygon class="cls-2"
        points="89.35 15.76 88.03 15.76 88.03 65.1 87.26 65.1 87.26 158.27 90.44 158.27 90.44 65.1 89.35 65.1 89.35 15.76" />
      <rect class="cls-10" x="36.88" y="0" width="7.72" height="75" />
    </g>
  </g>
</svg>