<?xml version="1.0" encoding="UTF-8"?>
<svg id="_圖層_2" data-name="圖層 2" xmlns="http://www.w3.org/2000/svg" viewBox="0 0 285.37 50.78">
  <defs>
    <style>
      .cls-1, .cls-2 {
        fill: #fff;
      }

      .cls-3 {
        fill: #a32121;
      }

      .cls-2 {
        font-family: NotoSerifTC-Bold-90ms-RKSJ-H, 'Noto Serif TC';
        font-size: 24.29px;
        letter-spacing: .05em;
      }

      .cls-4 {
        fill: #537a54;
      }

      .cls-5 {
        fill: #781e1c;
      }

      .cls-6 {
        fill: #444660;
      }
    </style>
  </defs>
  <g id="content">
    <g>
      <circle class="cls-1" cx="170.18" cy="13.75" r="13.46"/>
      <g>
        <g>
          <rect class="cls-1" x="23.05" y="14.48" width="6.08" height="12.34"/>
          <path class="cls-1" d="M17.92,.32l.76-.07,1.28-.04,1.36,.13,1.3,.16,1.59,.37s-.29,.07-.8,.18c-.28,.06-.62,.14-.74,.16-.04,0-.61,.18-.61,.18l-.62,.23-.63,.23-1.06,.47-.69,.35-.68,.42-.67,.43-.54,.43-.64,.58-.58,.53-.67,.72-.36,.5-.36,.5-.36,.55-.19,.36-.32,.56-.28,.66-.21,.69-.22,.76-.12,.71-.11,.75-.05,.66-.02,.56v.45s.06,.85,.06,.85l.03,.52,.04,.6,.12,1.05,.14,1.2s.18,.53,.19,.55c.08,.18,.32,.74,.32,.74l.27,.56,.32,.53,.28,.43,.35,.52,.34,.45,.44,.5,.51,.49,.6,.57,.59,.49,.61,.51,.72,.5,.57,.4,.49,.33,.47,.29,.45,.28,.31,.2,.43,.27,.34,.18,.23,.14,.28,.19h0s-6.26,0-6.26,0l-.27-.04-.32-.11-.45-.18-.35-.15-.38-.17-.39-.2-.51-.27-.56-.29-.5-.3-.47-.29-.37-.23-.36-.25-.29-.21-.32-.27-.38-.34-.32-.31-.34-.32-.28-.28-.35-.36-.34-.42-.31-.35-.25-.33s-.59-.96-.7-1.13c-.08-.11-.26-.5-.41-.81-.07-.14-.22-.44-.22-.44l-.13-.31-.1-.29-.11-.28-.11-.3s-.04-.17-.09-.35c-.04-.14-.13-.34-.14-.54-.03-.1-.08-.35-.1-.47-.02-.14-.02-.23-.05-.3-.01-.18-.06-.4-.04-.59-.02-.08-.05-.45-.04-.48,0-.06-.01-.18-.02-.31,0-.12,0-.25,0-.35,0-.04,0-.07,0-.09,0-.02,0-.08,0-.08v-.06s0-.06,0-.06v-.07s0-.07,0-.07l.03-.43,.02-.36s.02-.14,.07-.35c.03-.13,.03-.21,.05-.29,0-.02,.05-.2,.05-.21,0-.01,.04-.2,.04-.2l.04-.21s.08-.3,.12-.4c0-.08-.03,.06,.06-.25,.09-.32,.25-.81,.27-.86,.27-.71,.29-.68,.29-.68l.25-.6,.33-.72,.26-.41,.3-.48,.63-.84,.37-.5,.54-.66,.51-.62,.83-.79,.5-.48,1.03-.87,.82-.51,.94-.55,.65-.26,.72-.29,.71-.23,.94-.21,1.04-.17Z"/>
          <path class="cls-1" d="M.21,25.55l.05-.43,.15-.38,.17-.26,.18-.27s.2-.26,.23-.31c0,0,0,0,0,0l.23-.24,.22-.22,.19-.19,.17-.18,.22-.22,.3-.3,.16-.15,.15-.14,.14-.13,.15-.14,.16-.15,.27-.26,.24-.19,.22-.17,.18-.14,.22-.17,.18-.14,.19-.14,.29-.21,.19-.17,.23-.18,.25-.19,.44-.3,.31-.24s.18-.11,.35-.22c.11-.07,.21-.14,.25-.17,.01,0,.02-.01,.02-.01l.51-.34,.32-.21,.54-.33,.5-.3s.23-.12,.53-.3c.25-.15,.38-.2,.47-.26,.02-.01,.03-.02,.03-.02l.58-.31,.51-.27,.46-.24,1.16-.66,1.21-.58,2.24-1.08,1.23-.63,1.58-.67,1.5-.65,1.73-.72,1.16-.39,1.1-.36,.92-.26,.67-.15,.6-.14,.48-.1,.27-.05,.25-.05s.24-.07,.31-.07c0,0,.14-.02,.28-.04,.01,0,.02,0,.03,0,.03,0,.27-.06,.27-.06,0,0,.19-.02,.21-.02,.06,0,.06,0,.21-.02,.19-.01,.39-.02,.39-.02l.34-.03,.24-.02,.47-.02s.39-.03,.41-.03c.09,0,.21,0,.45,.02,.17,0,.31,.02,.31,.02,0,0,.11,.02,.48,.03,.12,0,.25,.01,.39,.03,.12,.02,.25,.04,.38,.08,.05,.01,.23,.06,.39,.09,.13,.03,.23,.06,.23,.06l.2,.07,.22,.08,.24,.13s.16,.11,.3,.22c.11,.07,.21,.15,.25,.18,.01,0,.02,.01,.02,.01l.13,.14,.16,.16,.15,.16,.06,.06,.15,.15s.12,.14,.23,.26c.07,.08,.14,.16,.17,.2,.03,.07-.05-.05-.05-.05l.17,.25,.1,.18,.17,.37,.1,.41,.03,.56-.04,.4-.11,.36-.17,.36-.22,.41s0,0-.02,.02c-.04,.05-.13,.17-.25,.32-.06,.08-.13,.17-.2,.26-.08,.11-.16,.21-.23,.3-.11,.14-.18,.23-.18,.23l-.18,.19-.22,.22-.25,.26-.22,.22-.2,.15-.25,.19-.43,.34-.32,.24-.32,.25-.31,.21-.48,.33-.31,.22-.42,.24-.44,.26-.19,.11s-.15,.1-.22,.14c-.01,0-.02,.01-.02,.01,0,0,.02,0,0,0-.07,.04-.35,.2-.59,.33-.2,.11-.37,.21-.37,.21l-.25,.05-.3-.04-.24-.09s.21-.21,.25-.25c0,0,0-.01,0-.01l.26-.29s.26-.29,.29-.32c0,0,0-.01,0-.01l.4-.49,.16-.23,.14-.23,.15-.25,.27-.39,.21-.36,.14-.22,.09-.19,.16-.38,.12-.31,.09-.33,.09-.35s.02-.18,.05-.37c.03-.19,0-.33,0-.41,0-.02,0-.1,0-.1,0,0-.02-.15-.09-.25-.06-.08-.11-.2-.17-.25-.02-.02-.12-.12-.12-.12,0,0,0-.01-.02-.02-.07-.04-.16-.1-.16-.1,0,0-.01,0-.03-.01-.13-.06-.55-.27-.55-.27l-.48-.12-.6-.06h-.46l-.59,.03-.62,.09-.48,.09-.67,.14-.98,.2-.94,.21-1.16,.28-.75,.26-.85,.29-1.04,.36-1.14,.39s-1.28,.52-2.88,1.18c-.48,.2-.99,.41-1.5,.62-.5,.21-.63,.24-1.12,.45,0,0-.02,0-.03,.01-.52,.22-.64,.27-1.11,.48-.33,.15-.5,.28-.61,.32-.21,.07-.47,.22-.65,.33,0,0,0,0,0,0-.18,.11-.91,.46-1.36,.69-.67,.35-.95,.48-1.3,.7-.24,.15-.57,.33-.8,.48-.27,.17-.32,.17-.48,.26-.24,.14-.36,.2-.36,.2l-.65,.37s-.78,.45-.97,.56c-.02,.01-.03,.02-.03,.02l-1.01,.67-.69,.48-.77,.52s0,0-.02,.01c-.09,.07-.54,.42-.67,.49-.02,.01-.03,.02-.03,.02l-.6,.47-.66,.52-.53,.48-.06-.57Z"/>
        </g>
        <text class="cls-2" transform="translate(41.2 25.38)"><tspan x="0" y="0">全坤建設</tspan></text>
        <g>
          <rect class="cls-4" x="22.84" y="14.27" width="6.08" height="12.34"/>
          <path class="cls-6" d="M17.72,.11l.76-.07,1.28-.04,1.36,.13,1.3,.16,1.59,.37s-.29,.07-.8,.18c-.28,.06-.62,.14-.74,.16-.04,0-.61,.18-.61,.18l-.62,.23-.63,.23-1.06,.47-.69,.35-.68,.42-.67,.43-.54,.43-.64,.58-.58,.53-.67,.72-.36,.5-.36,.5-.36,.55-.19,.36-.32,.56-.28,.66-.21,.69-.22,.76-.12,.71-.11,.75-.05,.66-.02,.56v.45s.06,.85,.06,.85l.03,.52,.04,.6,.12,1.05,.14,1.2s.18,.53,.19,.55c.08,.18,.32,.74,.32,.74l.27,.56,.32,.53,.28,.43,.35,.52,.34,.45,.44,.5,.51,.49,.6,.57,.59,.49,.61,.51,.72,.5,.57,.4,.49,.33,.47,.29,.45,.28,.31,.2,.43,.27,.34,.18,.23,.14,.28,.19h0s-6.26,0-6.26,0l-.27-.04-.32-.11-.45-.18-.35-.15-.38-.17-.39-.2-.51-.27-.56-.29-.5-.3-.47-.29-.37-.23-.36-.25-.29-.21-.32-.27-.38-.34-.32-.31-.34-.32-.28-.28-.35-.36-.34-.42-.31-.35-.25-.33s-.59-.96-.7-1.13c-.08-.11-.26-.5-.41-.81-.07-.14-.22-.44-.22-.44l-.13-.31-.1-.29-.11-.28-.11-.3s-.04-.17-.09-.35c-.04-.14-.13-.34-.14-.54-.03-.1-.08-.35-.1-.47-.02-.14-.02-.23-.05-.3-.01-.18-.06-.4-.04-.59-.02-.08-.05-.45-.04-.48,0-.06-.01-.18-.02-.31,0-.12,0-.25,0-.35,0-.04,0-.07,0-.09,0-.02,0-.08,0-.08v-.06s0-.06,0-.06v-.07s0-.07,0-.07l.03-.43,.02-.36s.02-.14,.07-.35c.03-.13,.03-.21,.05-.29,0-.02,.05-.2,.05-.21,0-.01,.04-.2,.04-.2l.04-.21s.08-.3,.12-.4c0-.08-.03,.06,.06-.25,.09-.32,.25-.81,.27-.86,.27-.71,.29-.68,.29-.68l.25-.6,.33-.72,.26-.41,.3-.48,.63-.84,.37-.5,.54-.66,.51-.62,.83-.79,.5-.48,1.03-.87,.82-.51,.94-.55,.65-.26,.72-.29,.71-.23,.94-.21,1.04-.17Z"/>
          <path class="cls-5" d="M0,25.34l.05-.43,.15-.38,.17-.26,.18-.27s.2-.26,.23-.31c0,0,0,0,0,0l.23-.24,.22-.22,.19-.19,.17-.18,.22-.22,.3-.3,.16-.15,.15-.14,.14-.13,.15-.14,.16-.15,.27-.26,.24-.19,.22-.17,.18-.14,.22-.17,.18-.14,.19-.14,.29-.21,.19-.17,.23-.18,.25-.19,.44-.3,.31-.24s.18-.11,.35-.22c.11-.07,.21-.14,.25-.17,.01,0,.02-.01,.02-.01l.51-.34,.32-.21,.54-.33,.5-.3s.23-.12,.53-.3c.25-.15,.38-.2,.47-.26,.02-.01,.03-.02,.03-.02l.58-.31,.51-.27,.46-.24,1.16-.66,1.21-.58,2.24-1.08,1.23-.63,1.58-.67,1.5-.65,1.73-.72,1.16-.39,1.1-.36,.92-.26,.67-.15,.6-.14,.48-.1,.27-.05,.25-.05s.24-.07,.31-.07c0,0,.14-.02,.28-.04,.01,0,.02,0,.03,0,.03,0,.27-.06,.27-.06,0,0,.19-.02,.21-.02,.06,0,.06,0,.21-.02,.19-.01,.39-.02,.39-.02l.34-.03,.24-.02,.47-.02s.39-.03,.41-.03c.09,0,.21,0,.45,.02,.17,0,.31,.02,.31,.02,0,0,.11,.02,.48,.03,.12,0,.25,.01,.39,.03,.12,.02,.25,.04,.38,.08,.05,.01,.23,.06,.39,.09,.13,.03,.23,.06,.23,.06l.2,.07,.22,.08,.24,.13s.16,.11,.3,.22c.11,.07,.21,.15,.25,.18,.01,0,.02,.01,.02,.01l.13,.14,.16,.16,.15,.16,.06,.06,.15,.15s.12,.14,.23,.26c.07,.08,.14,.16,.17,.2,.03,.07-.05-.05-.05-.05l.17,.25,.1,.18,.17,.37,.1,.41,.03,.56-.04,.4-.11,.36-.17,.36-.22,.41s0,0-.02,.02c-.04,.05-.13,.17-.25,.32-.06,.08-.13,.17-.2,.26-.08,.11-.16,.21-.23,.3-.11,.14-.18,.23-.18,.23l-.18,.19-.22,.22-.25,.26-.22,.22-.2,.15-.25,.19-.43,.34-.32,.24-.32,.25-.31,.21-.48,.33-.31,.22-.42,.24-.44,.26-.19,.11s-.15,.1-.22,.14c-.01,0-.02,.01-.02,.01,0,0,.02,0,0,0-.07,.04-.35,.2-.59,.33-.2,.11-.37,.21-.37,.21l-.25,.05-.3-.04-.24-.09s.21-.21,.25-.25c0,0,0-.01,0-.01l.26-.29s.26-.29,.29-.32c0,0,0-.01,0-.01l.4-.49,.16-.23,.14-.23,.15-.25,.27-.39,.21-.36,.14-.22,.09-.19,.16-.38,.12-.31,.09-.33,.09-.35s.02-.18,.05-.37c.03-.19,0-.33,0-.41,0-.02,0-.1,0-.1,0,0-.02-.15-.09-.25-.06-.08-.11-.2-.17-.25-.02-.02-.12-.12-.12-.12,0,0,0-.01-.02-.02-.07-.04-.16-.1-.16-.1,0,0-.01,0-.03-.01-.13-.06-.55-.27-.55-.27l-.48-.12-.6-.06h-.46l-.59,.03-.62,.09-.48,.09-.67,.14-.98,.2-.94,.21-1.16,.28-.75,.26-.85,.29-1.04,.36-1.14,.39s-1.28,.52-2.88,1.18c-.48,.2-.99,.41-1.5,.62-.5,.21-.63,.24-1.12,.45,0,0-.02,0-.03,.01-.52,.22-.64,.27-1.11,.48-.33,.15-.5,.28-.61,.32-.21,.07-.47,.22-.65,.33,0,0,0,0,0,0-.18,.11-.91,.46-1.36,.69-.67,.35-.95,.48-1.3,.7-.24,.15-.57,.33-.8,.48-.27,.17-.32,.17-.48,.26-.24,.14-.36,.2-.36,.2l-.65,.37s-.78,.45-.97,.56c-.02,.01-.03,.02-.03,.02l-1.01,.67-.69,.48-.77,.52s0,0-.02,.01c-.09,.07-.54,.42-.67,.49-.02,.01-.03,.02-.03,.02l-.6,.47-.66,.52-.53,.48-.06-.57Z"/>
        </g>
      </g>
      <g>
        <path class="cls-3" d="M166.56,8.2c3.75-3.56,8.4-5.96,11.01-5.35-2.11-1.43-4.65-2.27-7.39-2.27-7.28,0-13.17,5.9-13.17,13.17,0,3.11,1.08,5.96,2.88,8.22-1.06-3.48,2.49-9.8,6.68-13.77"/>
        <path class="cls-3" d="M179.3,4.25c.7,1.6-.14,4.18-3.05,7.31-3.49,3.75-6.07,5.43-7.75,4.39-1.68-1.03,2.45-6.46,3.75-7.23,1.29-.77,.77,1.55,.77,1.55,0,0,5.68-3.49,4-5.42-1.08-1.25-6.59,2.71-9.56,6.59-2.97,3.87-4.6,7.82-2.84,9.69,2.19,2.33,7.23-.78,11.49-4,1.55-1.16,1.55-.39,1.03,.39,0,0-7.78,9.84-14.73,6.9,2.18,1.59,4.86,2.53,7.76,2.53,7.28,0,13.17-5.89,13.17-13.17,0-3.74-1.55-7.11-4.05-9.5"/>
      </g>
      <g>
        <path class="cls-1" d="M264.93,1.98h0c0-.19-.16-.35-.35-.36h-8.32V3.64h8.67V1.98Z"/>
        <path class="cls-1" d="M225.28,4.71c0-.19-.15-.35-.35-.35h-3.26c.18-.3,.36-.64,.57-1h0l.15-.25h2.22V1.82c0-.2-.16-.35-.36-.35h-5.47c-.14-.41-.32-.86-.52-1.21l-2.07,.37c.11,.25,.21,.55,.3,.84h-6.06v1.64h2.51c.04,.07,.09,.17,.13,.27,.13,.29,.27,.64,.36,.98h-3.59v1.64h15.44v-1.29Zm-5.79-.35h-3.92c-.11-.38-.3-.86-.5-1.25h4.92c-.12,.38-.32,.84-.5,1.25"/>
        <path class="cls-1" d="M219.93,15.25h-3.73c-.8,0-1.08-.05-1.08-.52v-1.5c0-.19-.16-.35-.35-.35h-1.72v1.87c0,1.68,.69,2.19,2.94,2.19h4.73c1.66,0,2.01-1.12,2.02-2.98h-1.94c-.09,1.25-.2,1.28-.86,1.28"/>
        <path class="cls-1" d="M223.77,12.09V7.01h0c0-.2-.15-.36-.34-.36h-12.11v5.44h5.22l-.59,.71c1.01,.63,2.05,1.64,2.72,2.19l1.48-1.3c-.45-.36-1.54-1.15-2.39-1.6h6.01Zm-10.46-4.12h8.36v.77h-8.36v-.77Zm0,1.98h8.36v.8h-8.36v-.8Z"/>
        <path class="cls-1" d="M209.23,16.11h2.33c.42-.95,.88-2.51,1.13-3.23h-1.91c-.44,1.01-1.18,2.63-1.55,3.23"/>
        <path class="cls-1" d="M223.77,12.48l-1.33,.83c.69,.79,2,2.29,2.4,2.89l1.5-1.32c-.39-.5-2.12-2.01-2.57-2.4"/>
        <path class="cls-1" d="M202.36,3.63h0c0-.2-.16-.35-.35-.36h-1.64V13.24h2V3.63Z"/>
        <path class="cls-1" d="M205.35,.88c0-.2-.16-.36-.36-.36h-1.68V14.57c0,.3-.12,.39-.41,.39s-1.21,0-2.12-.02l.62,2.12c1.43,0,2.44-.07,3.07-.43,.66-.34,.87-.91,.87-2.05V.88h0Z"/>
        <path class="cls-1" d="M198.92,12.38h-6.27c.04-.18,.05-.52,.09-.7h6.19V6.43h0c0-.2-.16-.36-.36-.36h-7.59v2.05c0,2.09-.14,5.42-1.55,7.68h2.26c.32-.72,.56-1.63,.74-2.44v3.46h6.84v-4.11c0-.19-.16-.35-.35-.35m-5.97-4.25v-.65h4.05v.76h-4.05v-.11Zm-.04,1.29h4.09v.8h-4.12c.02-.25,.04-.56,.04-.8m4.5,5.85h-3.21v-1.51h3.21v1.51Z"/>
        <path class="cls-1" d="M196.44,.84l-1.31-.7c-.24-.13-.36-.15-.63,.18-1.3,1.59-2.83,3.23-5.06,5.34h2.71c.34-.31,.75-.68,1.02-1.02v.84h4.33v-.92c.67,.52,1.25,.98,1.42,1.13l1.03-1.77c-.82-.62-2.52-1.79-3.84-2.6,.11-.15,.21-.3,.32-.47m.55,3.32h-3.4c.42-.43,.99-1.08,1.39-1.51,.27,.18,1.15,.84,2.02,1.51"/>
        <path class="cls-1" d="M284.61,5.42h-2.82V.85h0c0-.19-.15-.34-.33-.36h-1.7V5.42h-3.14v5.5c0,1.7-.28,4.59-1.09,6.03h2.09c.23-.72,.62-2.34,.71-3.12,.35-.13,3.31-.85,4.73-1.21v2.17c0,.23-.09,.32-.36,.32-.27,.02-1.12,.02-1.95-.04l.59,1.96c1.3,0,2.15-.02,2.78-.34,.66-.32,.84-.89,.84-1.87V5.78h0c0-.2-.15-.35-.35-.36m-1.55,5.45c-1.73,.39-3.32,.79-4.59,1.03,0-.17,0-1.43,0-2.62h0s0-.01,0-.01c0-1.13,0-2.06,0-2.06h4.59v3.66Z"/>
        <path class="cls-1" d="M275.58,14.21l-2.06,.33v-4.61h2.09v-1.8h-2.09v-1.44h1.45s0-1.31,0-1.31c.32,.32,.58,.57,.69,.66l.92-1.58c-.69-.64-1.58-1.52-2.86-2.55,.05-.08,.27-.41,.36-.54l-1.16-.7c-.28-.15-.4-.2-.68,.13-1.02,1.34-2.39,2.88-4.23,4.81h1.87v1.09h1.93v1.44h-2.48v1.8h2.48v4.89c-.84,.13-1.82,.25-2.48,.35v1.99c1.74-.4,4.16-.85,6.32-1.37l-.07-1.58Zm-4.48-9.19c.57-.62,1.38-1.51,1.62-1.76,.27,.18,1.15,1.04,1.88,1.76h-3.5Z"/>
        <path class="cls-1" d="M273.85,13.55l1.25,.38c.3-.75,.64-1.9,.99-2.91l-1.6-.4c-.16,.95-.4,2.05-.64,2.92"/>
        <path class="cls-1" d="M271.4,13.88c-.13-.83-.42-2.14-.72-3.14l-1.42,.37c.26,1,.54,2.31,.63,3.2l1.52-.42Z"/>
        <path class="cls-1" d="M279.18,4.37c-.23-.76-.71-2.15-1.31-3.12l-1.7,.77c.83,1.42,1.14,2.72,1.26,3.05l1.74-.7Z"/>
        <path class="cls-1" d="M285.37,1.99l-1.79-.63c-.34,1.06-.7,2.14-1.21,3.07l1.77,.67c.49-.94,.88-1.93,1.23-3.11"/>
        <path class="cls-1" d="M282.91,9.31c-.82-.48-2.41-1.04-3.64-1.28l-.8,1.26h0c1.23,.35,2.75,.96,3.53,1.46l.91-1.43Z"/>
        <path class="cls-1" d="M264.9,6.12h-8.97v2.02h4.68v6.49c0,.27-.13,.34-.45,.34-.32,.02-1.5,.02-2.52-.04l.64,2.16c1.59,0,2.76-.04,3.51-.36,.79-.32,1-.91,1-2.05v-6.54h2.44v-1.67c0-.19-.15-.34-.34-.35"/>
        <path class="cls-1" d="M254.52,4.24c-.33-.14-.47-.18-.71,.15h0c-1.49,2.07-3.35,4.17-5.14,5.98h2.74v6.66h2.12V8.16c.73-.96,1.87-2.43,2.41-3.34l-1.42-.58Z"/>
        <path class="cls-1" d="M251.54,5.54c.86-.98,2.2-2.67,3.08-3.91l-1.38-.57-.1-.04c-.16-.06-.31-.09-.53,.2-.02,.02-.03,.04-.05,.06-1.12,1.48-2.69,3.14-3.76,4.26h2.74Z"/>
        <path class="cls-1" d="M242,10.03c.78-.54,1.75-1.24,2.46-1.79l-1.32-1.16c-.26-.22-.41-.13-.57,.01-.87,.81-2.12,1.75-3.23,2.49-.36-.77-.87-1.52-1.57-2.16,.39-.25,.75-.63,1.07-.91h3.88v-1.38h0c0-.2-.16-.35-.35-.36h-9.55v1.74h3.14c-1.7,.85-3.8,1.64-5.82,2.05l1.09,1.66c1.68-.45,3.41-1.05,4.96-1.87,.15,.14,.37,.44,.48,.65-1.55,1.03-4.46,2.09-6.65,2.56l1.05,1.64c2.03-.63,4.62-1.77,6.4-2.9,.11,.23,.24,.51,.31,.73-2.02,1.57-5.21,2.97-8.03,3.58l1.11,1.77h0c2.37-.71,5.22-2.08,7.26-3.47,0,.86-.26,1.55-.53,1.86-.29,.34-.57,.41-1,.41s-.98-.02-1.61-.09l.57,2.02c.52,.02,1.05,.04,1.45,.02,.93-.02,1.5-.19,2.15-.8,.87-.8,1.31-2.84,.81-4.98,.2-.14,.36-.25,.54-.38,.88,2.16,2.2,3.97,3.92,5.08l1.75-1.54c-1.8-.99-3.19-2.48-4.19-4.48"/>
        <path class="cls-1" d="M232.01,3.71h11.41v2.21h2.03V2.34c0-.19-.16-.35-.35-.35h-6c-.18-.52-.48-1.21-.77-1.69l-2.25,.64c.14,.27,.3,.71,.43,1.05h-6.46v3.93h1.96V3.71Z"/>
        <path class="cls-1" d="M216.99,21.42h-4.5v.78h1.9v4.53h1.28v-4.53h1.78v-.29c0-.3-.06-.49-.46-.49"/>
        <path class="cls-1" d="M223.44,22.61c-.13-.2-.28-.38-.45-.54-.18-.16-.38-.3-.59-.41-.22-.11-.45-.2-.7-.26-.25-.06-.52-.09-.79-.09s-.54,.03-.79,.09c-.25,.06-.49,.15-.7,.26-.22,.11-.41,.25-.59,.41-.18,.16-.33,.35-.45,.55-.13,.2-.22,.42-.29,.66-.07,.24-.1,.49-.1,.76s.03,.53,.1,.78c.07,.24,.16,.47,.29,.68,.13,.21,.28,.4,.45,.56,.18,.17,.37,.31,.59,.43,.22,.12,.45,.21,.7,.27,.25,.06,.52,.1,.79,.1s.54-.03,.79-.09c.25-.06,.49-.15,.7-.26,.22-.12,.41-.26,.59-.42,.18-.16,.33-.35,.45-.56,.12-.21,.22-.44,.29-.69s.1-.51,.1-.79c0-.27-.03-.52-.1-.76s-.17-.46-.29-.66m-1.03,2.34c-.07,.28-.17,.52-.3,.72-.13,.2-.3,.36-.5,.48-.2,.12-.43,.17-.68,.17s-.49-.06-.69-.17c-.2-.11-.37-.27-.5-.48-.13-.2-.23-.44-.3-.72-.07-.28-.1-.58-.1-.91s.03-.62,.1-.89c.07-.27,.17-.5,.3-.7,.13-.19,.3-.35,.5-.45,.2-.11,.43-.16,.69-.16s.49,.05,.68,.16c.2,.11,.36,.26,.5,.45,.13,.19,.24,.43,.3,.7,.07,.27,.1,.57,.1,.89s-.03,.63-.1,.91"/>
        <path class="cls-1" d="M228.18,23.96c.15-.09,.28-.19,.38-.3,.11-.11,.19-.24,.25-.37,.06-.13,.09-.28,.09-.43,0-.21-.04-.4-.13-.58s-.21-.33-.39-.46c-.17-.13-.39-.23-.65-.3-.26-.07-.56-.11-.9-.11h-1.24c-.36,0-.65,.29-.65,.65v4.66h1.2v-2.41h.23l1.79,2.41h1.41l-1.89-2.54c.18-.06,.35-.13,.5-.22m-.72-.67c-.06,.12-.14,.22-.23,.31-.1,.08-.22,.15-.35,.19-.14,.05-.28,.07-.44,.07h-.28v-1.93h.53c.13,0,.24,.02,.35,.07,.11,.05,.2,.11,.27,.2,.08,.09,.14,.19,.18,.3,.04,.12,.07,.24,.07,.38,0,.15-.03,.29-.09,.41"/>
        <path class="cls-1" d="M202.24,22.07h0v4.66h3.86v-.87h-2.66v-1.45h2.21v-.78h-2.21v-1.42h2.84v-.78h-3.38c-.36,0-.65,.29-.65,.65"/>
        <path class="cls-1" d="M199.86,23.96c.15-.09,.28-.19,.38-.3,.11-.11,.19-.24,.25-.37,.06-.13,.09-.28,.09-.43,0-.21-.04-.4-.13-.58-.09-.18-.21-.33-.39-.46-.17-.13-.39-.23-.65-.3-.26-.07-.56-.11-.9-.11h-1.24c-.36,0-.65,.29-.65,.65v4.66h1.2v-2.3h.31l1.71,2.3h1.41l-1.89-2.54c.18-.06,.35-.13,.5-.22m-.72-.67c-.06,.12-.14,.22-.23,.31-.1,.08-.22,.15-.35,.19-.14,.05-.28,.07-.44,.07h-.28v-1.93h.53c.13,0,.24,.02,.35,.07,.11,.05,.2,.11,.27,.2,.08,.09,.14,.19,.18,.3,.04,.12,.07,.24,.07,.38,0,.15-.03,.29-.09,.41"/>
        <path class="cls-1" d="M268.83,21.42h-4.5v.78h1.9v4.53h1.28v-4.53h1.78v-.41c0-.23-.11-.37-.46-.37"/>
        <path class="cls-1" d="M271.34,21.42h-.84v5.31h1.3v-4.89c-.01-.26-.09-.42-.46-.42"/>
        <path class="cls-1" d="M260.48,24.4h2.21v-.78h-2.21v-1.42h2.77v-.78h-3.31c-.36,0-.65,.29-.65,.65h0v4.66h4.07v-.87h-2.88v-1.45Z"/>
        <path class="cls-1" d="M250.95,23.96c.15-.09,.28-.19,.38-.3,.11-.11,.19-.24,.25-.37,.06-.13,.09-.28,.09-.43,0-.21-.04-.4-.13-.58-.09-.18-.21-.33-.39-.46-.17-.13-.39-.23-.65-.3-.26-.07-.56-.11-.9-.11h-1.24c-.36,0-.65,.29-.65,.65v4.66h1.2v-2.3h.31l1.71,2.3h1.41l-1.89-2.54c.18-.06,.35-.13,.5-.22m-.72-.67c-.06,.12-.14,.22-.23,.31-.1,.08-.22,.15-.35,.19-.13,.05-.28,.07-.44,.07h-.28v-1.93h.53c.13,0,.24,.02,.35,.07,.11,.05,.2,.11,.27,.2,.08,.09,.14,.19,.18,.3,.04,.12,.07,.24,.07,.38,0,.15-.03,.29-.09,.41"/>
        <path class="cls-1" d="M244.15,21.28h-.38c-.09,0-.15,.08-.19,.16-.59,1.33-2.49,5.29-2.49,5.29h1.12l.68-1.45h1.95l.66,1.45h1.23s-1.78-3.98-2.39-5.29c-.04-.09-.07-.16-.19-.16m-.95,3.34l.71-1.51,.65,1.51h-1.35Z"/>
        <path class="cls-1" d="M210.02,21.28h-.38c-.09,0-.15,.08-.19,.16-.59,1.33-2.49,5.29-2.49,5.29h1.12l.68-1.45h1.95l.66,1.45h1.23s-1.78-3.98-2.39-5.29c-.04-.09-.07-.16-.19-.16m-.95,3.34l.71-1.51,.65,1.51h-1.35Z"/>
        <path class="cls-1" d="M192.97,22.23c.73,0,1.25,.47,1.49,.76,.09,.11,.2,.17,.34,.07,0,0,.46-.33,.46-.33-.29-.55-.99-1.5-2.58-1.5s-2.87,1.26-2.87,2.81,1.28,2.81,2.87,2.81c1.03,0,1.95-.48,2.45-1.27,.04-.06,.07-.12,.11-.18l-.46-.35c-.13-.11-.26-.06-.36,.04-1.2,1.22-2.73,.69-3.12-.48-.41-1.25,.62-2.39,1.66-2.39"/>
        <path class="cls-1" d="M284.79,24.16h-1.84v.46h.87v.95c-1.03,.75-2.76,.37-2.76-1.5,0-1.53,1.1-1.94,1.69-1.94,.75,0,1.29,.52,1.55,.83h0v.02c.13,.14,.24,.13,.36,.02l.42-.41c-.11-.17-.24-.33-.41-.48-.16-.16-.35-.3-.55-.42-.2-.12-.43-.22-.67-.29-.24-.07-.49-.11-.75-.11-.29,0-.57,.03-.84,.09-.26,.06-.51,.15-.73,.27-.22,.12-.43,.26-.61,.43-.18,.17-.33,.36-.46,.57-.13,.21-.22,.45-.29,.7-.07,.25-.1,.52-.1,.8,0,.41,.08,.77,.23,1.11,.15,.33,.36,.61,.63,.85,.27,.24,.59,.42,.96,.55,.26,.09,.55,.15,.84,.18,.78,.04,1.95-.03,2.74-.9v-1.45c0-.26-.12-.33-.29-.33"/>
        <path class="cls-1" d="M238.91,21.7l-1.67,3.34-1.71-3.38c-.08-.14-.16-.24-.41-.25h-.98v5.31h.82v-3.5l1.79,3.5h.5l1.73-3.46v3.46h1.24v-5.31h-.9c-.27,0-.35,.12-.43,.29"/>
        <path class="cls-1" d="M278.31,21.42h-.77v3.59l-2.57-3.43c-.08-.09-.17-.16-.34-.17h-1.06v5.31h1.26v-3.64l2.84,3.72h1.05v-5.03c0-.21-.11-.36-.42-.36"/>
        <path class="cls-1" d="M255.47,23.73l2.39-2.31h-1.14l-2.09,1.93v-1.56c0-.22-.1-.36-.4-.36h-.85v5.31h1.24v-2.21l2.3,2.21h1.58l-3.04-3Z"/>
      </g>
    </g>
  </g>
</svg>