<?xml version="1.0" encoding="UTF-8"?>
<svg id="_圖層_2" data-name="圖層 2" xmlns="http://www.w3.org/2000/svg" viewBox="0 0 350.99 85.28">
  <defs>
    <style>
      .cls-1 {
        fill: #fff;
      }
    </style>
  </defs>
  <g id="content">
    <g>
      <path class="cls-1" d="M50.26,71.67h32.07v11.56H5.64v-11.56h30.82v-8.6H14.42v-11.2h22.04v-8.33H18.99v-7.88c-3.67,2.33-7.44,4.48-11.02,6.18-1.79-3.22-5.11-7.79-7.97-10.57,9.23-3.4,19.08-9.41,27.05-16.21h-9.32V3.05H50.53c7.35,10.75,21.23,21.59,37.09,27.05-2.69,2.78-6.81,8.33-8.69,12-3.85-1.79-7.52-3.85-11.11-6.09v7.53h-17.56v8.33h22.31v11.2h-22.31v8.6Zm-6.81-56.62c-5.38,6.09-12.18,12-19.35,17.11H62.17c-7.17-5.2-13.44-11.2-18.63-17.11h-.09Z"/>
      <path class="cls-1" d="M117.27,46.76l2.96,11.47c-8.87,4.66-18.72,9.5-26.79,13.26l-5.2-13.08c2.78-.99,6.09-2.24,9.76-3.67v-22.04h-8.6v-12.27h8.6V1.43h12.63V20.43h8.24v12.27h-8.24v16.84l6.63-2.78ZM169.67,11.82v52.59h-12.27v-3.58h-6v24.37h-12.45v-24.37h-6.27v4.12h-11.74V11.82h18.01V.09h12.45V11.82h18.28Zm-37,11.91v6.63h6.27v-6.63h-6.27Zm6.27,25.17v-6.99h-6.27v6.99h6.27Zm12.45-25.17v6.63h6v-6.63h-6Zm6,25.17v-6.99h-6v6.99h6Z"/>
      <path class="cls-1" d="M202.28,28.94c-.54-.45-1.07-.99-1.61-1.43-1.16,2.24-2.33,4.48-3.67,6.63v51.15h-11.74V50.88c-1.17,1.34-2.24,2.6-3.4,3.76-1.17-2.78-4.66-9.23-6.72-12,6.09-5.73,12.45-14.6,16.3-23.2l6.45,2.33c5.46-6.45,8.87-14.24,10.66-21.05l11.47,1.79c-.45,1.43-.9,2.87-1.43,4.3h7.79l1.7-.45,7.53,4.84c-1.34,2.96-3.14,6.45-5.02,9.76h6.9v31.35h-35.21V28.94Zm-.36-24.55c-5.2,8.15-12.9,16.84-19.98,22.4-1.43-2.69-4.39-7.61-6.36-10.03,5.55-4.21,11.74-11.29,14.69-16.75l11.65,4.39Zm26.61,61.99c3.4,2.69,6.72,5.55,8.6,7.97l-7.7,7.79c-1.79-2.51-5.11-5.73-8.6-8.69-2.87,4.93-7.52,8.69-15.41,11.47-1.08-2.69-3.94-6.72-6.18-8.78,7.26-2.24,10.93-5.46,12.81-9.76h-11.74v-10.21h13.71l.18-2.78h11.02l-.18,2.78h13.62v10.21h-10.12Zm-17.11-33.77h3.94v-3.14h-3.94v3.14Zm0,11.2h3.94v-3.23h-3.94v3.23Zm3.23-27.32c-.81,1.52-1.52,3.05-2.42,4.48h6.9c.72-1.34,1.43-2.96,2.06-4.48h-6.54Zm13.26,12.99h-3.67v3.14h3.67v-3.14Zm0,11.11h-3.67v3.23h3.67v-3.23Zm33.77-1.34h-5.2v33.15c0,5.29-.63,8.51-3.76,10.39-3.14,1.88-6.99,2.15-12.18,2.15-.27-3.31-1.52-8.24-2.96-11.65,2.42,.09,5.29,.09,6.18,.09,.99,0,1.25-.27,1.25-1.16V39.24h-6v-11.74h22.67v11.74Zm-2.15-22.31h-18.99V5.38h18.99v11.56Z"/>
      <path class="cls-1" d="M330.3,67.55h18.54v9.85h-18.54v7.7h-12.9v-7.7h-17.65v-9.85h17.65v-2.6h-12.81v-9.14h12.81v-2.33h-13.44v-8.96l-1.7,.45c-.9-2.06-2.51-5.02-4.21-7.44v40.13h-8.33v-4.03h-23.38V14.69h8.6V62.53h2.15V1.34h10.66V62.53h1.97V14.78h8.33v5.46c7.52-4.66,14.06-12.18,17.47-20.16l11.92,3.05c-.54,1.34-1.25,2.6-1.88,3.85h9.59l2.15-.36,7.97,3.05c-2.51,7.53-6.18,13.71-10.93,18.63,4.75,2.15,10.3,3.76,16.66,4.66-2.51,2.51-6.09,7.61-7.7,10.93-7.35-1.61-13.62-4.3-18.99-7.61-5.73,3.49-12.36,6.09-19.62,8.06h12.72v-4.03h12.9v4.03h13.98v9.14h-13.98v2.33h13.8v9.14h-13.8v2.6Zm-32.25-32.97c6.18-1.25,11.83-3.22,16.75-5.82-1.25-1.16-2.42-2.42-3.4-3.76-1.43,1.25-2.96,2.42-4.39,3.49-1.97-1.97-6.18-5.38-8.96-7.35v13.44Zm21.05-17.83l-.36,.45c1.52,1.79,3.23,3.49,5.29,5.11,1.79-1.7,3.4-3.58,4.75-5.55h-9.68Z"/>
    </g>
  </g>
</svg>