<?xml version="1.0" encoding="UTF-8"?>
<svg id="_圖層_2" data-name="圖層 2" xmlns="http://www.w3.org/2000/svg" viewBox="0 0 403.53 98.05">
  <defs>
    <style>
      .cls-1 {
        fill: #fff;
      }
    </style>
  </defs>
  <g id="content">
    <g>
      <path class="cls-1" d="M57.78,82.4h36.87v13.29H6.49v-13.29H41.92v-9.89H16.58v-12.88h25.34v-9.58H21.83v-9.06c-4.22,2.68-8.55,5.15-12.67,7.11-2.06-3.71-5.87-8.96-9.17-12.15,10.61-3.91,21.94-10.81,31.11-18.64h-10.71V3.5H58.09c8.45,12.36,24.41,24.82,42.64,31.1-3.09,3.19-7.83,9.58-9.99,13.8-4.43-2.06-8.65-4.43-12.77-7v8.65h-20.19v9.58h25.65v12.88h-25.65v9.89Zm-7.83-65.09c-6.18,7-14.01,13.8-22.25,19.67h43.77c-8.24-5.97-15.45-12.88-21.42-19.67h-.1Z"/>
      <path class="cls-1" d="M134.82,53.76l3.4,13.18c-10.2,5.36-21.53,10.92-30.8,15.24l-5.97-15.04c3.19-1.13,7-2.57,11.23-4.22v-25.34h-9.89v-14.11h9.89V1.65h14.52V23.48h9.48v14.11h-9.48v19.36l7.62-3.19ZM195.07,13.6v60.46h-14.11v-4.12h-6.9v28.02h-14.32v-28.02h-7.21v4.74h-13.49V13.6h20.7V.1h14.32V13.6h21.01Zm-42.54,13.7v7.62h7.21v-7.62h-7.21Zm7.21,28.94v-8.03h-7.21v8.03h7.21Zm14.32-28.94v7.62h6.9v-7.62h-6.9Zm6.9,28.94v-8.03h-6.9v8.03h6.9Z"/>
      <path class="cls-1" d="M232.56,33.27c-.62-.51-1.24-1.13-1.85-1.65-1.34,2.57-2.68,5.15-4.22,7.62v58.81h-13.49V58.5c-1.34,1.54-2.58,2.99-3.91,4.33-1.34-3.19-5.36-10.61-7.72-13.8,7-6.59,14.32-16.79,18.75-26.68l7.42,2.68c6.28-7.42,10.2-16.38,12.26-24.21l13.18,2.06c-.52,1.65-1.03,3.3-1.65,4.94h8.96l1.96-.51,8.65,5.56c-1.54,3.4-3.6,7.42-5.77,11.23h7.93V60.15h-40.48v-26.88Zm-.41-28.22c-5.97,9.37-14.83,19.36-22.97,25.75-1.65-3.09-5.05-8.75-7.31-11.54,6.39-4.84,13.49-12.98,16.89-19.26l13.39,5.05Zm30.59,71.27c3.91,3.09,7.72,6.39,9.89,9.17l-8.86,8.96c-2.06-2.88-5.87-6.59-9.89-9.99-3.3,5.67-8.65,9.99-17.72,13.18-1.24-3.09-4.53-7.72-7.11-10.09,8.34-2.58,12.57-6.28,14.73-11.23h-13.49v-11.74h15.76l.21-3.19h12.67l-.21,3.19h15.66v11.74h-11.64Zm-19.67-38.83h4.53v-3.6h-4.53v3.6Zm0,12.88h4.53v-3.71h-4.53v3.71Zm3.71-31.41c-.93,1.75-1.75,3.5-2.78,5.15h7.93c.82-1.54,1.65-3.4,2.37-5.15h-7.52Zm15.24,14.93h-4.22v3.6h4.22v-3.6Zm0,12.77h-4.22v3.71h4.22v-3.71Zm38.83-1.54h-5.97v38.11c0,6.08-.72,9.78-4.33,11.95-3.61,2.16-8.03,2.47-14.01,2.47-.31-3.81-1.75-9.48-3.4-13.39,2.78,.1,6.08,.1,7.11,.1,1.13,0,1.44-.31,1.44-1.34V45.11h-6.9v-13.49h26.06v13.49Zm-2.47-25.65h-21.83V6.18h21.83v13.29Z"/>
      <path class="cls-1" d="M379.74,77.66h21.32v11.33h-21.32v8.86h-14.83v-8.86h-20.29v-11.33h20.29v-2.99h-14.73v-10.51h14.73v-2.68h-15.45v-10.3l-1.96,.51c-1.03-2.37-2.88-5.77-4.84-8.55v46.14h-9.58v-4.63h-26.88V16.89h9.89v55h2.47V1.54h12.26V71.89h2.27V16.99h9.58v6.28c8.65-5.36,16.17-14.01,20.08-23.17l13.7,3.5c-.62,1.54-1.44,2.99-2.16,4.43h11.02l2.47-.41,9.17,3.5c-2.88,8.65-7.11,15.76-12.57,21.42,5.46,2.47,11.84,4.33,19.16,5.36-2.88,2.88-7,8.75-8.86,12.57-8.45-1.85-15.66-4.94-21.83-8.75-6.59,4.02-14.21,7-22.56,9.27h14.63v-4.63h14.83v4.63h16.07v10.51h-16.07v2.68h15.86v10.51h-15.86v2.99Zm-37.08-37.9c7.11-1.44,13.59-3.71,19.26-6.7-1.44-1.34-2.78-2.78-3.91-4.33-1.65,1.44-3.4,2.78-5.05,4.02-2.27-2.27-7.11-6.18-10.3-8.45v15.45Zm24.2-20.5l-.41,.52c1.75,2.06,3.71,4.02,6.08,5.87,2.06-1.96,3.91-4.12,5.46-6.39h-11.12Z"/>
    </g>
  </g>
</svg>