<?xml version="1.0" encoding="UTF-8"?>
<svg id="_圖層_2" data-name="圖層 2" xmlns="http://www.w3.org/2000/svg" xmlns:xlink="http://www.w3.org/1999/xlink" viewBox="0 0 117.69 378.45">
  <defs>
    <style>
      .cls-1 {
        fill: url(#_未命名漸層_294-2);
      }

      .cls-2 {
        fill: url(#_未命名漸層_294-11);
      }

      .cls-3 {
        fill: url(#_未命名漸層_294-10);
      }

      .cls-4 {
        fill: url(#_未命名漸層_294);
      }

      .cls-5 {
        fill: url(#_未命名漸層_294-9);
      }

      .cls-6 {
        fill: url(#_未命名漸層_294-6);
      }

      .cls-7 {
        fill: url(#_未命名漸層_294-8);
      }

      .cls-8 {
        fill: url(#_未命名漸層_294-4);
      }

      .cls-9 {
        fill: url(#_未命名漸層_294-7);
      }

      .cls-10 {
        fill: url(#_未命名漸層_294-12);
      }

      .cls-11 {
        fill: url(#_未命名漸層_294-3);
      }

      .cls-12 {
        fill: url(#_未命名漸層_294-5);
      }
    </style>
    <linearGradient id="_未命名漸層_294" data-name="未命名漸層 294" x1="4.15" y1=".34" x2="4.15" y2="382.04" gradientUnits="userSpaceOnUse">
      <stop offset="0" stop-color="#f7e191"/>
      <stop offset=".04" stop-color="#f5de8c"/>
      <stop offset=".08" stop-color="#f1d77d"/>
      <stop offset=".13" stop-color="#eacc66"/>
      <stop offset=".17" stop-color="#e3c04d"/>
      <stop offset=".2" stop-color="#e4c251"/>
      <stop offset=".23" stop-color="#e7c860"/>
      <stop offset=".26" stop-color="#edd277"/>
      <stop offset=".29" stop-color="#f4e098"/>
      <stop offset=".33" stop-color="#fef3c2"/>
      <stop offset=".33" stop-color="#fff4c4"/>
      <stop offset=".53" stop-color="#f2d477"/>
      <stop offset=".55" stop-color="#f2d57b"/>
      <stop offset=".57" stop-color="#f3da8a"/>
      <stop offset=".59" stop-color="#f6e1a1"/>
      <stop offset=".61" stop-color="#f9ebc2"/>
      <stop offset=".63" stop-color="#fdf9ec"/>
      <stop offset=".64" stop-color="#fff"/>
      <stop offset=".76" stop-color="#f6e28b"/>
      <stop offset=".84" stop-color="#f4de86"/>
      <stop offset=".93" stop-color="#eed278"/>
      <stop offset="1" stop-color="#e9c668"/>
    </linearGradient>
    <linearGradient id="_未命名漸層_294-2" data-name="未命名漸層 294" x1="41.97" x2="41.97" xlink:href="#_未命名漸層_294"/>
    <linearGradient id="_未命名漸層_294-3" data-name="未命名漸層 294" x1="54.58" y1=".34" x2="54.58" y2="382.04" xlink:href="#_未命名漸層_294"/>
    <linearGradient id="_未命名漸層_294-4" data-name="未命名漸層 294" x1="88.34" y1=".34" x2="88.34" y2="382.04" xlink:href="#_未命名漸層_294"/>
    <linearGradient id="_未命名漸層_294-5" data-name="未命名漸層 294" x1="111.18" y1=".34" x2="111.18" y2="382.04" xlink:href="#_未命名漸層_294"/>
    <linearGradient id="_未命名漸層_294-6" data-name="未命名漸層 294" x1="66.77" y1=".34" x2="66.77" y2="382.04" xlink:href="#_未命名漸層_294"/>
    <linearGradient id="_未命名漸層_294-7" data-name="未命名漸層 294" x1="56.62" y1=".34" x2="56.62" y2="382.04" xlink:href="#_未命名漸層_294"/>
    <linearGradient id="_未命名漸層_294-8" data-name="未命名漸層 294" x1="22.55" y1=".34" x2="22.55" y2="382.04" xlink:href="#_未命名漸層_294"/>
    <linearGradient id="_未命名漸層_294-9" data-name="未命名漸層 294" x1="32.45" y1=".34" x2="32.45" y2="382.04" xlink:href="#_未命名漸層_294"/>
    <linearGradient id="_未命名漸層_294-10" data-name="未命名漸層 294" x1="78.45" y1=".34" x2="78.45" y2="382.04" xlink:href="#_未命名漸層_294"/>
    <linearGradient id="_未命名漸層_294-11" data-name="未命名漸層 294" x1="95.6" y1=".34" x2="95.6" y2="382.04" xlink:href="#_未命名漸層_294"/>
    <linearGradient id="_未命名漸層_294-12" data-name="未命名漸層 294" x1="43.84" y1=".34" x2="43.84" y2="382.04" xlink:href="#_未命名漸層_294"/>
  </defs>
  <g id="content">
    <g>
      <rect class="cls-4" y="154.26" width="8.31" height="224.19"/>
      <rect class="cls-1" x="37.82" y="154.26" width="8.31" height="224.19"/>
      <rect class="cls-11" x="52.87" y="154.26" width="3.42" height="170.06"/>
      <rect class="cls-8" x="86.65" y="154.26" width="3.39" height="170.06"/>
      <polygon class="cls-12" points="112.98 154.26 112.98 70.04 109.53 70.04 109.53 16.95 108.11 16.95 108.11 70.04 104.67 70.04 104.67 170.3 109.38 170.3 109.38 378.45 117.69 378.45 117.69 154.26 112.98 154.26"/>
      <polygon class="cls-6" points="66.23 79.77 70.8 79.77 70.8 9.53 62.49 9.53 62.49 79.77 62.8 79.77 62.8 154.26 62.74 154.26 62.74 378.45 71.05 378.45 71.05 154.26 66.23 154.26 66.23 79.77"/>
      <rect class="cls-9" x="54.91" width="3.42" height="80.7"/>
      <polygon class="cls-7" points="21.88 70.04 19.79 70.04 19.79 170.3 23.22 170.3 23.22 86.16 25.31 86.16 25.31 15.85 21.88 15.85 21.88 70.04"/>
      <rect class="cls-5" x="31.74" y="15.85" width="1.43" height="70.31"/>
      <polygon class="cls-3" points="81.18 70.04 74.3 70.04 74.3 170.3 82.61 170.3 82.61 79.81 82.61 70.04 82.61 9.5 81.18 9.5 81.18 70.04"/>
      <polygon class="cls-2" points="96.14 16.95 94.71 16.95 94.71 70.04 93.89 70.04 93.89 170.3 97.31 170.3 97.31 70.04 96.14 70.04 96.14 16.95"/>
      <rect class="cls-10" x="39.68" width="8.31" height="80.7"/>
    </g>
  </g>
</svg>