<?xml version="1.0" encoding="UTF-8"?>
<svg id="_圖層_2" data-name="圖層 2" xmlns="http://www.w3.org/2000/svg" viewBox="0 0 237.76 84.31">
  <defs>
    <style>
      .cls-1, .cls-2 {
        fill: #fff;
      }

      .cls-2 {
        font-family: NotoSerifTC-Bold-90ms-RKSJ-H, 'Noto Serif TC';
        font-size: 40.32px;
        letter-spacing: .05em;
      }

      .cls-3 {
        fill: #537a54;
      }

      .cls-4 {
        fill: #781e1c;
      }

      .cls-5 {
        fill: #444660;
      }
    </style>
  </defs>
  <g id="content">
    <g>
      <g>
        <rect class="cls-1" x="38.26" y="24.03" width="10.1" height="20.48"/>
        <path class="cls-1" d="M29.76,.53l1.25-.12,2.12-.07,2.26,.22,2.17,.27,2.64,.61s-.49,.11-1.34,.3c-.47,.1-1.03,.23-1.22,.27-.07,.01-1.02,.3-1.02,.3l-1.04,.39-1.04,.39-1.76,.79-1.14,.59-1.13,.7-1.11,.72-.9,.71-1.06,.96-.97,.88-1.1,1.2-.59,.82-.6,.83-.59,.91-.32,.61-.53,.93-.46,1.09-.35,1.14-.37,1.27-.2,1.18-.19,1.25-.08,1.09-.04,.93v.75s.09,1.41,.09,1.41l.05,.86,.06,.99,.2,1.74,.23,1.98s.3,.87,.31,.91c.13,.31,.53,1.23,.53,1.23l.44,.93,.53,.88,.46,.71,.59,.87,.56,.74,.73,.83,.85,.81,.99,.94,.98,.81,1.02,.84,1.19,.82,.95,.66,.81,.55,.78,.48,.74,.46,.51,.33,.72,.44,.56,.3,.38,.22,.46,.31v.02s-10.4-.02-10.4-.02l-.45-.07-.53-.19-.74-.3-.59-.26-.63-.27-.64-.34-.85-.44-.93-.48-.84-.5-.78-.48-.61-.38-.61-.42-.49-.35-.53-.44-.63-.56-.53-.51-.56-.53-.46-.46-.58-.6-.56-.7-.51-.58-.42-.54s-.97-1.59-1.16-1.87c-.13-.19-.43-.84-.69-1.34-.12-.24-.37-.73-.37-.73l-.21-.51-.17-.48-.18-.47-.18-.5s-.06-.28-.16-.59c-.07-.23-.21-.57-.24-.89-.05-.16-.14-.59-.17-.78-.04-.23-.04-.38-.08-.5-.02-.29-.09-.66-.07-.98-.03-.13-.08-.75-.07-.8-.01-.09-.02-.29-.03-.51,0-.2,0-.42,0-.58,0-.06,0-.11,0-.15,0-.04,0-.14,0-.14v-.11s.01-.1,.01-.1v-.11s.01-.11,.01-.11l.04-.71,.04-.59s.04-.23,.11-.58c.05-.22,.05-.34,.08-.48,0-.04,.08-.32,.08-.35,0-.02,.07-.33,.07-.33l.07-.35s.13-.5,.19-.66c.01-.13-.04,.11,.1-.42,.14-.53,.42-1.35,.45-1.43,.44-1.17,.47-1.13,.47-1.13l.41-.99,.54-1.19,.43-.68,.5-.79,1.04-1.39,.62-.82,.9-1.09,.85-1.03,1.37-1.31,.84-.8,1.7-1.44,1.37-.85,1.57-.91,1.08-.44,1.19-.48,1.19-.38,1.55-.36,1.73-.29Z"/>
        <path class="cls-1" d="M.34,42.42l.09-.71,.24-.63,.29-.43,.3-.45s.33-.44,.38-.52c0,0,0-.01,0-.01l.38-.39,.37-.37,.31-.31,.29-.29,.37-.37,.49-.5,.26-.24,.25-.23,.24-.22,.25-.23,.27-.25,.45-.42,.4-.31,.36-.28,.29-.22,.36-.28,.3-.23,.31-.24,.49-.35,.32-.28,.39-.3,.41-.32,.73-.5,.52-.39s.3-.19,.57-.37c.18-.12,.36-.23,.41-.28,.02-.01,.03-.02,.03-.02l.85-.56,.53-.35,.89-.54,.82-.49s.39-.2,.88-.49c.42-.25,.64-.34,.79-.42,.03-.02,.05-.03,.05-.03l.97-.52,.84-.45,.77-.4,1.93-1.09,2-.96,3.72-1.79,2.03-1.04,2.62-1.12,2.49-1.08,2.86-1.19,1.93-.65,1.83-.59,1.53-.44,1.12-.26,.99-.24,.8-.16,.44-.09,.41-.08s.4-.11,.51-.11c0,0,.24-.04,.46-.06,.02,0,.04,0,.04,0,.05,0,.45-.09,.45-.09,0,0,.32-.04,.35-.04,.09,0,.1-.01,.35-.03,.32-.02,.64-.04,.64-.04l.57-.06,.4-.03,.79-.03s.65-.05,.68-.05c.15,0,.35,.01,.75,.03,.29,.01,.51,.02,.51,.02,0,0,.19,.04,.8,.04,.21,0,.42,.02,.65,.06,.2,.03,.41,.07,.64,.13,.09,.02,.39,.1,.64,.16,.21,.05,.39,.1,.39,.1l.34,.12,.37,.13,.4,.21s.26,.18,.51,.36c.18,.12,.35,.24,.42,.29,.02,.01,.03,.02,.03,.02l.22,.22,.26,.27,.26,.27,.1,.1,.24,.26s.2,.23,.38,.44c.12,.14,.23,.27,.28,.33,.04,.12-.09-.08-.09-.08l.28,.41,.17,.3,.28,.61,.17,.68,.05,.93-.07,.66-.18,.6-.28,.59-.37,.67s-.01,.01-.02,.03c-.06,.08-.22,.28-.41,.53-.11,.14-.22,.28-.34,.43-.14,.18-.27,.35-.39,.5-.18,.23-.3,.39-.3,.39l-.31,.31-.36,.37-.42,.43-.36,.37-.33,.26-.41,.32-.72,.56-.52,.4-.53,.41-.51,.35-.8,.55-.52,.36-.7,.4-.74,.43-.32,.19s-.24,.17-.36,.23c-.02,.01-.04,.02-.04,.02,0,0,.03,0-.01,.01-.12,.07-.58,.33-.97,.55-.33,.19-.61,.35-.61,.35l-.41,.09-.49-.06-.4-.15s.35-.35,.41-.42c0-.01,.01-.02,.01-.02l.44-.49s.44-.48,.48-.54c0-.01,.01-.02,.01-.02l.67-.82,.26-.38,.24-.38,.25-.41,.44-.65,.34-.6,.23-.36,.14-.32,.27-.63,.2-.52,.15-.54,.16-.58s.04-.29,.08-.62c.04-.31,.01-.56,.01-.67,0-.03,0-.17,0-.17,0,0-.03-.25-.15-.41-.1-.13-.18-.34-.28-.42-.03-.03-.21-.19-.21-.19,0,0-.02-.02-.04-.03-.12-.07-.26-.16-.26-.16,0,0-.02,0-.05-.02-.21-.1-.91-.44-.91-.44l-.79-.2-1-.1h-.76l-.97,.05-1.04,.15-.79,.15-1.11,.23-1.63,.33-1.56,.35-1.93,.46-1.25,.43-1.41,.49-1.73,.6-1.9,.66s-2.12,.86-4.79,1.95c-.79,.33-1.64,.67-2.49,1.02-.83,.34-1.05,.4-1.86,.74-.01,0-.03,.01-.04,.02-.86,.36-1.06,.46-1.85,.8-.55,.24-.83,.47-1.02,.54-.35,.12-.78,.37-1.09,.55,0,0,0,0-.01,0-.3,.17-1.51,.76-2.25,1.15-1.11,.59-1.58,.8-2.15,1.17-.41,.25-.95,.55-1.33,.8-.44,.28-.53,.28-.79,.44-.39,.23-.6,.33-.6,.33l-1.08,.62s-1.3,.75-1.6,.93c-.04,.02-.05,.03-.05,.03l-1.68,1.12-1.14,.79-1.27,.86s0,0-.03,.02c-.15,.12-.9,.69-1.11,.82-.03,.02-.05,.03-.05,.03l-.99,.78-1.1,.87-.88,.8-.1-.95Z"/>
      </g>
      <text class="cls-2" transform="translate(68.4 42.13)"><tspan x="0" y="0">全坤建設</tspan></text>
      <g>
        <rect class="cls-3" x="37.92" y="23.69" width="10.1" height="20.48"/>
        <path class="cls-5" d="M29.41,.19l1.25-.12,2.12-.07,2.26,.22,2.17,.27,2.64,.61s-.49,.11-1.34,.3c-.47,.1-1.03,.23-1.22,.27-.07,.01-1.02,.3-1.02,.3l-1.04,.39-1.04,.39-1.76,.79-1.14,.59-1.13,.7-1.11,.72-.9,.71-1.06,.96-.97,.88-1.1,1.2-.59,.82-.6,.83-.59,.91-.32,.61-.53,.93-.46,1.09-.35,1.14-.37,1.27-.2,1.18-.19,1.25-.08,1.09-.04,.93v.75s.09,1.41,.09,1.41l.05,.86,.06,.99,.2,1.74,.23,1.98s.3,.87,.31,.91c.13,.31,.53,1.23,.53,1.23l.44,.93,.53,.88,.46,.71,.59,.87,.56,.74,.73,.83,.85,.81,.99,.94,.98,.81,1.02,.84,1.19,.82,.95,.66,.81,.55,.78,.48,.74,.46,.51,.33,.72,.44,.56,.3,.38,.22,.46,.31v.02s-10.4-.02-10.4-.02l-.45-.07-.53-.19-.74-.3-.59-.26-.63-.27-.64-.34-.85-.44-.93-.48-.84-.5-.78-.48-.61-.38-.61-.42-.49-.35-.53-.44-.63-.56-.53-.51-.56-.53-.46-.46-.58-.6-.56-.7-.51-.58-.42-.54s-.97-1.59-1.16-1.87c-.13-.19-.43-.84-.69-1.34-.12-.24-.37-.73-.37-.73l-.21-.51-.17-.48-.18-.47-.18-.5s-.06-.28-.16-.59c-.07-.23-.21-.57-.24-.89-.05-.16-.14-.59-.17-.78-.04-.23-.04-.38-.08-.5-.02-.29-.09-.66-.07-.98-.03-.13-.08-.75-.07-.8-.01-.09-.02-.29-.03-.51,0-.2,0-.42,0-.58,0-.06,0-.11,0-.15,0-.04,0-.14,0-.14v-.11s.01-.1,.01-.1v-.11s.01-.11,.01-.11l.04-.71,.04-.59s.04-.23,.11-.58c.05-.22,.05-.34,.08-.48,0-.04,.08-.32,.08-.35,0-.02,.07-.33,.07-.33l.07-.35s.13-.5,.19-.66c.01-.13-.04,.11,.1-.42,.14-.53,.42-1.35,.45-1.43,.44-1.17,.47-1.13,.47-1.13l.41-.99,.54-1.19,.43-.68,.5-.79,1.04-1.39,.62-.82,.9-1.09,.85-1.03,1.37-1.31,.84-.8,1.7-1.44,1.37-.85,1.57-.91,1.08-.44,1.19-.48,1.19-.38,1.55-.36,1.73-.29Z"/>
        <path class="cls-4" d="M0,42.07l.09-.71,.24-.63,.29-.43,.3-.45s.33-.44,.38-.52c0,0,0-.01,0-.01l.38-.39,.37-.37,.31-.31,.29-.29,.37-.37,.49-.5,.26-.24,.25-.23,.24-.22,.25-.23,.27-.25,.45-.42,.4-.31,.36-.28,.29-.22,.36-.28,.3-.23,.31-.24,.49-.35,.32-.28,.39-.3,.41-.32,.73-.5,.52-.39s.3-.19,.57-.37c.18-.12,.36-.23,.41-.28,.02-.01,.03-.02,.03-.02l.85-.56,.53-.35,.89-.54,.82-.49s.39-.2,.88-.49c.42-.25,.64-.34,.79-.42,.03-.02,.05-.03,.05-.03l.97-.52,.84-.45,.77-.4,1.93-1.09,2-.96,3.72-1.79,2.03-1.04,2.62-1.12,2.49-1.08,2.86-1.19,1.93-.65,1.83-.59,1.53-.44,1.12-.26,.99-.24,.8-.16,.44-.09,.41-.08s.4-.11,.51-.11c0,0,.24-.04,.46-.06,.02,0,.04,0,.04,0,.05,0,.45-.09,.45-.09,0,0,.32-.04,.35-.04,.09,0,.1-.01,.35-.03,.32-.02,.64-.04,.64-.04l.57-.06,.4-.03,.79-.03s.65-.05,.68-.05c.15,0,.35,.01,.75,.03,.29,.01,.51,.02,.51,.02,0,0,.19,.04,.8,.04,.21,0,.42,.02,.65,.06,.2,.03,.41,.07,.64,.13,.09,.02,.39,.1,.64,.16,.21,.05,.39,.1,.39,.1l.34,.12,.37,.13,.4,.21s.26,.18,.51,.36c.18,.12,.35,.24,.42,.29,.02,.01,.03,.02,.03,.02l.22,.22,.26,.27,.26,.27,.1,.1,.24,.26s.2,.23,.38,.44c.12,.14,.23,.27,.28,.33,.04,.12-.09-.08-.09-.08l.28,.41,.17,.3,.28,.61,.17,.68,.05,.93-.07,.66-.18,.6-.28,.59-.37,.67s-.01,.01-.02,.03c-.06,.08-.22,.28-.41,.53-.11,.14-.22,.28-.34,.43-.14,.18-.27,.35-.39,.5-.18,.23-.3,.39-.3,.39l-.31,.31-.36,.37-.42,.43-.36,.37-.33,.26-.41,.32-.72,.56-.52,.4-.53,.41-.51,.35-.8,.55-.52,.36-.7,.4-.74,.43-.32,.19s-.24,.17-.36,.23c-.02,.01-.04,.02-.04,.02,0,0,.03,0-.01,.01-.12,.07-.58,.33-.97,.55-.33,.19-.61,.35-.61,.35l-.41,.09-.49-.06-.4-.15s.35-.35,.41-.42c0-.01,.01-.02,.01-.02l.44-.49s.44-.48,.48-.54c0-.01,.01-.02,.01-.02l.67-.82,.26-.38,.24-.38,.25-.41,.44-.65,.34-.6,.23-.36,.14-.32,.27-.63,.2-.52,.15-.54,.16-.58s.04-.29,.08-.62c.04-.31,.01-.56,.01-.67,0-.03,0-.17,0-.17,0,0-.03-.25-.15-.41-.1-.13-.18-.34-.28-.42-.03-.03-.21-.19-.21-.19,0,0-.02-.02-.04-.03-.12-.07-.26-.16-.26-.16,0,0-.02,0-.05-.02-.21-.1-.91-.44-.91-.44l-.79-.2-1-.1h-.76l-.97,.05-1.04,.15-.79,.15-1.11,.23-1.63,.33-1.56,.35-1.93,.46-1.25,.43-1.41,.49-1.73,.6-1.9,.66s-2.12,.86-4.79,1.95c-.79,.33-1.64,.67-2.49,1.02-.83,.34-1.05,.4-1.86,.74-.01,0-.03,.01-.04,.02-.86,.36-1.06,.46-1.85,.8-.55,.24-.83,.47-1.02,.54-.35,.12-.78,.37-1.09,.55,0,0,0,0-.01,0-.3,.17-1.51,.76-2.25,1.15-1.11,.59-1.58,.8-2.15,1.17-.41,.25-.95,.55-1.33,.8-.44,.28-.53,.28-.79,.44-.39,.23-.6,.33-.6,.33l-1.08,.62s-1.3,.75-1.6,.93c-.04,.02-.05,.03-.05,.03l-1.68,1.12-1.14,.79-1.27,.86s0,0-.03,.02c-.15,.12-.9,.69-1.11,.82-.03,.02-.05,.03-.05,.03l-.99,.78-1.1,.87-.88,.8-.1-.95Z"/>
      </g>
    </g>
  </g>
</svg>