<?xml version="1.0" encoding="UTF-8"?>
<svg id="_圖層_2" data-name="圖層 2" xmlns="http://www.w3.org/2000/svg" xmlns:xlink="http://www.w3.org/1999/xlink" viewBox="0 0 2008.1 383.58">
  <defs>
    <style>
      .cls-1 {
        stroke: url(#_未命名漸層_294);
        stroke-width: 20.32px;
      }

      .cls-1, .cls-2, .cls-3, .cls-4, .cls-5, .cls-6 {
        fill: none;
        stroke-miterlimit: 10;
      }

      .cls-2 {
        stroke: url(#_未命名漸層_294-4);
        stroke-width: 15px;
      }

      .cls-3 {
        stroke: url(#_未命名漸層_294-2);
        stroke-width: 7.26px;
      }

      .cls-4 {
        stroke: url(#_未命名漸層_6-8);
      }

      .cls-4, .cls-6 {
        stroke-width: .37px;
      }

      .cls-7 {
        fill: url(#_未命名漸層_6-7);
      }

      .cls-8 {
        fill: url(#_未命名漸層_111-2);
      }

      .cls-9 {
        fill: url(#_未命名漸層_6-6);
      }

      .cls-5 {
        stroke: url(#_未命名漸層_294-3);
        stroke-width: 4.96px;
      }

      .cls-10 {
        fill: url(#_未命名漸層_111);
      }

      .cls-11 {
        fill: url(#_未命名漸層_6-4);
      }

      .cls-12 {
        fill: url(#_未命名漸層_6-3);
      }

      .cls-6 {
        stroke: url(#_未命名漸層_6-5);
      }

      .cls-13 {
        fill: url(#_未命名漸層_6);
      }

      .cls-14 {
        fill: url(#_未命名漸層_6-2);
      }
    </style>
    <linearGradient id="_未命名漸層_6" data-name="未命名漸層 6" x1="996.21" y1="235.79" x2="1999.51" y2="217.87" gradientUnits="userSpaceOnUse">
      <stop offset="0" stop-color="#fff"/>
      <stop offset=".11" stop-color="#c3a76c"/>
      <stop offset=".13" stop-color="#b2945d"/>
      <stop offset=".18" stop-color="#9d7d4a"/>
      <stop offset=".22" stop-color="#8e6c3c"/>
      <stop offset=".27" stop-color="#856334"/>
      <stop offset=".34" stop-color="#836032"/>
      <stop offset=".55" stop-color="#c6ab6e"/>
      <stop offset=".64" stop-color="#d9c07f"/>
      <stop offset=".84" stop-color="#8c6b3b"/>
      <stop offset="1" stop-color="#fcfad8"/>
    </linearGradient>
    <linearGradient id="_未命名漸層_294" data-name="未命名漸層 294" x1="661.95" y1="275.63" x2="1325.94" y2="275.63" gradientTransform="translate(-829.09 -143.38) rotate(-1.03) scale(1.25 1.29)" gradientUnits="userSpaceOnUse">
      <stop offset="0" stop-color="#f7e191"/>
      <stop offset=".04" stop-color="#f5de8c"/>
      <stop offset=".08" stop-color="#f1d77d"/>
      <stop offset=".13" stop-color="#eacc66"/>
      <stop offset=".17" stop-color="#e3c04d"/>
      <stop offset=".2" stop-color="#e4c251"/>
      <stop offset=".23" stop-color="#e7c860"/>
      <stop offset=".26" stop-color="#edd277"/>
      <stop offset=".29" stop-color="#f4e098"/>
      <stop offset=".33" stop-color="#fef3c2"/>
      <stop offset=".33" stop-color="#fff4c4"/>
      <stop offset=".53" stop-color="#f2d477"/>
      <stop offset=".55" stop-color="#f2d57b"/>
      <stop offset=".57" stop-color="#f3da8a"/>
      <stop offset=".59" stop-color="#f6e1a1"/>
      <stop offset=".61" stop-color="#f9ebc2"/>
      <stop offset=".63" stop-color="#fdf9ec"/>
      <stop offset=".64" stop-color="#fff"/>
      <stop offset=".76" stop-color="#f6e28b"/>
      <stop offset=".84" stop-color="#f4de86"/>
      <stop offset=".93" stop-color="#eed278"/>
      <stop offset="1" stop-color="#e9c668"/>
    </linearGradient>
    <linearGradient id="_未命名漸層_294-2" data-name="未命名漸層 294" x1="3102.21" y1="-3816.17" x2="3422.24" y2="-3816.17" gradientTransform="translate(6098.7 1306.54) rotate(160.9) scale(1.13 -.63)" xlink:href="#_未命名漸層_294"/>
    <linearGradient id="_未命名漸層_294-3" data-name="未命名漸層 294" x1="6450.62" y1="-3403.66" x2="6624.78" y2="-3403.66" gradientTransform="translate(7114.11 3290.2) rotate(-169.35) scale(1.01 -.51)" xlink:href="#_未命名漸層_294"/>
    <linearGradient id="_未命名漸層_6-2" data-name="未命名漸層 6" x1="1865.09" y1="178.23" x2="1988.44" y2="108.46" xlink:href="#_未命名漸層_6"/>
    <linearGradient id="_未命名漸層_6-3" data-name="未命名漸層 6" x1="102.49" y1="192.41" x2="238.87" y2="151.84" xlink:href="#_未命名漸層_6"/>
    <linearGradient id="_未命名漸層_6-4" data-name="未命名漸層 6" x1="159.57" y1="299.65" x2="567.96" y2="258.33" xlink:href="#_未命名漸層_6"/>
    <linearGradient id="_未命名漸層_111" data-name="未命名漸層 111" x1="1173.65" y1="-38.22" x2="1173.65" y2="-44.54" gradientTransform="translate(-562.17 628.94) rotate(-10.41)" gradientUnits="userSpaceOnUse">
      <stop offset=".05" stop-color="#836032"/>
      <stop offset=".33" stop-color="#c6ab6e"/>
      <stop offset=".5" stop-color="#d9c07f"/>
      <stop offset=".71" stop-color="#fcfad8"/>
      <stop offset=".93" stop-color="#eaddaa"/>
    </linearGradient>
    <linearGradient id="_未命名漸層_6-5" data-name="未命名漸層 6" x1="1168.04" y1="-41.38" x2="1179.27" y2="-41.38" gradientTransform="translate(-562.17 628.94) rotate(-10.41)" xlink:href="#_未命名漸層_6"/>
    <linearGradient id="_未命名漸層_6-6" data-name="未命名漸層 6" x1="1488.15" y1="272.5" x2="1773.32" y2="297.91" xlink:href="#_未命名漸層_6"/>
    <linearGradient id="_未命名漸層_6-7" data-name="未命名漸層 6" x1="1637.71" y1="284.33" x2="1849.07" y2="236.18" xlink:href="#_未命名漸層_6"/>
    <linearGradient id="_未命名漸層_111-2" data-name="未命名漸層 111" x1="2433.68" y1="296.88" x2="2433.68" y2="290.55" gradientTransform="translate(-579.02 -128.08) rotate(1.01)" xlink:href="#_未命名漸層_111"/>
    <linearGradient id="_未命名漸層_6-8" data-name="未命名漸層 6" x1="2428.07" y1="293.72" x2="2439.3" y2="293.72" gradientTransform="translate(-579.02 -128.08) rotate(1.01)" xlink:href="#_未命名漸層_6"/>
    <linearGradient id="_未命名漸層_294-4" data-name="未命名漸層 294" x1="3167.18" y1="-4543.89" x2="3409.14" y2="-4543.89" gradientTransform="translate(5711.27 796.78) rotate(158.2) scale(1 -.45)" xlink:href="#_未命名漸層_294"/>
  </defs>
  <g id="content">
    <g>
      <path class="cls-13" d="M998.8,380.88c44.47,1.09,88.98,.44,133.39-1.97,22.21-1.18,44.39-2.73,66.55-4.64,22.16-1.91,44.27-4.24,66.36-6.85,22.08-2.64,44.14-5.51,66.12-8.83,21.98-3.33,43.9-7.12,65.72-11.4,43.64-8.55,86.9-19.07,129.51-31.77,21.32-6.32,42.48-13.16,63.48-20.44,21-7.31,41.83-15.09,62.49-23.32,20.66-8.21,41.11-16.96,61.37-26.13,20.26-9.16,40.31-18.79,60.09-28.94,19.76-10.2,39.34-20.74,58.56-31.93,19.22-11.18,38.18-22.82,56.82-34.94,37.3-24.21,73.32-50.43,107.63-78.74-34.21,28.43-70.14,54.79-107.36,79.15-18.62,12.17-37.58,23.82-56.79,35.03-19.21,11.22-38.79,21.79-58.55,32.02-19.78,10.18-39.83,19.84-60.09,29.03-20.26,9.19-40.71,17.97-61.37,26.22-41.31,16.53-83.35,31.25-126,43.95-42.66,12.66-85.96,23.12-129.64,31.63-21.84,4.25-43.77,8.02-65.77,11.32-22,3.3-44.07,6.13-66.16,8.75-44.18,5.21-88.53,9.06-132.96,11.32-44.43,2.25-88.95,2.74-133.41,1.49Z"/>
      <path class="cls-1" d="M7.06,7.31C204.65,198.18,496.39,331.68,830.38,370.67"/>
      <path class="cls-3" d="M1996.89,146.88c-74.51,68.3-182.81,135.78-312.01,191.28"/>
      <path class="cls-5" d="M1005.7,381.06c-54.82,.46-114.23-2.95-176.41-10.53"/>
      <path class="cls-14" d="M1868.33,183.95c20.06-12.67,39.9-25.71,59.36-39.28,19.51-13.5,38.65-27.54,57.51-41.94-18.73,14.57-37.9,28.57-57.37,42.14-19.51,13.5-39.32,26.59-59.5,39.08Z"/>
      <path class="cls-12" d="M78.28,111.05c27.72,24.53,57.3,46.93,88.23,67.24,30.89,20.38,63.15,38.67,96.38,54.97-33.26-16.23-65.57-34.45-96.51-54.76-30.9-20.38-60.43-42.85-88.1-67.44Z"/>
      <g>
        <path class="cls-11" d="M147.83,183.54c8.18,5.54,16.32,11.17,24.54,16.65l12.47,8.02,6.23,4.01,3.12,2,3.16,1.93,12.65,7.73c4.22,2.56,8.4,5.2,12.71,7.63l12.84,7.41,6.42,3.71c2.14,1.24,4.33,2.38,6.49,3.58,34.58,19.15,70.12,36.55,106.37,52.3,36.21,15.84,73.15,30.02,110.61,42.63l14.08,4.63c4.7,1.53,9.37,3.14,14.11,4.53l14.18,4.33,7.09,2.16,3.54,1.08,3.57,1.01c9.51,2.69,19,5.45,28.53,8.08l28.69,7.52-28.75-7.3c-9.55-2.56-19.06-5.25-28.6-7.86l-3.57-1-3.55-1.07-7.1-2.15-14.2-4.29c-4.75-1.39-9.43-2.98-14.13-4.5l-14.1-4.6c-37.51-12.52-74.51-26.61-110.79-42.37-36.24-15.85-71.75-33.36-106.3-52.61-2.16-1.2-4.35-2.35-6.49-3.59l-6.41-3.72-12.83-7.45c-4.3-2.44-8.48-5.09-12.7-7.66l-12.63-7.77-3.15-1.95-3.1-2.03-6.21-4.06-12.41-8.12c-8.18-5.54-16.27-11.23-24.42-16.83Z"/>
        <g>
          <circle class="cls-10" cx="584.67" cy="376.09" r="3.16"/>
          <circle class="cls-6" cx="584.67" cy="376.09" r="5.42"/>
        </g>
      </g>
      <g>
        <path class="cls-9" d="M1482.02,341.27l19.33-4.76,19.25-5.06,19.19-5.29c6.38-1.8,12.73-3.74,19.1-5.6,25.4-7.67,50.56-16.16,75.39-25.51,24.86-9.26,49.42-19.37,73.56-30.37,6.05-2.73,12.02-5.62,18.03-8.42,5.99-2.85,11.91-5.85,17.87-8.75,5.94-2.96,11.82-6.02,17.74-9.03l17.56-9.38-17.45,9.58c-5.88,3.08-11.73,6.21-17.64,9.24-5.95,2.95-11.86,5.96-17.84,8.83-6.01,2.83-11.97,5.75-18.01,8.5-24.12,11.1-48.64,21.32-73.49,30.68-24.89,9.26-50.09,17.66-75.54,25.23-6.38,1.84-12.74,3.75-19.13,5.52-6.41,1.73-12.8,3.53-19.22,5.21l-19.31,4.84-19.39,4.53Z"/>
        <path class="cls-7" d="M1643.41,309.33c34.57-13.66,68.6-28.68,101.95-45.07,33.39-16.32,66.12-34,98.02-53.08-31.86,19.15-64.55,36.91-97.91,53.3-33.4,16.32-67.46,31.26-102.06,44.85Z"/>
        <g>
          <circle class="cls-8" cx="1849.13" cy="208.32" r="3.16"/>
          <circle class="cls-4" cx="1849.13" cy="208.32" r="5.42"/>
        </g>
      </g>
      <path class="cls-2" d="M1803.95,202.42c52.65-29.48,103.76-62.49,151.66-99.2,13.82-10.59,27.72-21.21,41.47-32.01l6.46-4.94"/>
    </g>
  </g>
</svg>